<svg width="190" height="190" viewBox="0 0 190 190" fill="none" xmlns="http://www.w3.org/2000/svg">
<g clip-path="url(#clip0_1125_122)">
<path d="M95.0118 190.024C147.485 190.024 190.024 147.485 190.024 95.0118C190.024 42.5382 147.485 0 95.0118 0C42.5382 0 0 42.5382 0 95.0118C0 147.485 42.5382 190.024 95.0118 190.024Z" fill="#607D37"/>
<path d="M24.9225 109.634C26.8596 113.036 30.6865 118.753 34.6788 118.753C34.6788 118.753 34.0882 105.689 39.1672 100.61C43.1594 96.6182 31.2298 102.973 25.9855 105.878C24.639 106.611 24.1665 108.312 24.9225 109.634Z" fill="#CEB87F"/>
<path d="M24.5444 108.028C24.5444 108.028 33.4739 42.3797 67.5383 28.891C80.3893 23.812 109.658 71.0108 121.611 76.3969C121.611 76.3969 133.423 82.0664 139.848 82.0664C145.518 82.0664 132.974 144.219 132.974 144.219C132.974 144.219 130.588 150.053 127.305 157.377C124.021 164.7 93.5473 159.763 79.4916 140.652C65.4595 121.517 43.372 94.2795 24.5444 108.028Z" fill="#F9E7B6"/>
<path d="M166.448 78.4993L127.305 157.377C127.305 157.377 128.509 148.872 121.021 145.73C116.178 143.699 107.863 146.038 107.863 146.038L143.581 69.4045C143.581 69.4045 159.266 62.3884 166.448 78.5229V78.4993Z" fill="#CEB87F"/>
<path d="M38.6707 76.515C36.0013 69.0265 56.4825 46.939 67.1364 46.939C77.7904 46.939 93.2163 53.7188 96.5471 64.5854C99.878 75.452 99.6417 81.901 105.642 83.4602C111.642 85.0193 122.296 86.5784 122.296 90.9959C122.296 95.4134 127.635 100.54 119.627 108.76C111.642 116.981 105.429 135.171 96.3109 132.289C87.1924 129.407 78.9952 118.517 77.0109 114.312C75.0029 110.083 62.5772 95.2244 55.4903 95.0118C48.4034 94.7992 41.3401 84.0271 38.6707 76.5386V76.515Z" fill="#C8D183"/>
<path d="M100.185 125.674C103.28 125.202 102.264 123.123 102.335 122.674C102.406 122.226 99.4292 120.052 98.1535 122.367C96.8779 124.682 100.185 125.674 100.185 125.674Z" fill="#F3B11C" stroke="#231F20" stroke-width="0.26" stroke-miterlimit="10"/>
<path d="M100.776 122.415C102.122 118.564 111.241 110.65 108.878 106.422C106.516 102.217 111.241 91.9881 107.981 92.2243C104.721 92.4605 89.1059 111.264 81.334 102.878C75.7825 96.878 89.4367 82.7278 87.7594 77.4599C86.0822 72.192 90.4052 59.7899 83.3183 61.7033C76.2314 63.6168 60.6166 73.0424 59.5771 74.3653" stroke="#231F20" stroke-width="0.8" stroke-miterlimit="10" stroke-linecap="round" stroke-dasharray="0.66 2"/>
<path d="M57.5928 88.1611C58.2306 84.9011 59.459 67.302 63.6639 62.0813" stroke="#C85871" stroke-width="1.84" stroke-miterlimit="10" stroke-linecap="round"/>
<path d="M48.0493 71.6959C54.5693 71.6722 68.6013 77.7906 71.1999 78.0977" stroke="#C85871" stroke-width="1.84" stroke-miterlimit="10" stroke-linecap="round"/>
</g>
<defs>
<clipPath id="clip0_1125_122">
<rect width="190" height="190" fill="white"/>
</clipPath>
</defs>
</svg>
