<svg width="210" height="87" viewBox="0 0 210 87" fill="none" xmlns="http://www.w3.org/2000/svg">
<g clip-path="url(#clip0_1044_1820)">
<path d="M51.1681 21.4392C51.1681 30.9564 46.8208 37.702 38.2485 41.5538C48.7393 43.5917 54.4134 51.9065 54.4134 61.9129C54.4134 77.4624 42.351 86.9796 26.778 86.9796C15.7974 86.9796 9.40898 83.5966 1.55107 77.2178C0.469336 76.3823 -0.0205078 75.0576 -0.0205078 73.733C-0.0205078 72.7751 0.224414 71.6746 0.938769 70.9614L3.83701 67.2319C4.79629 66.1518 6.00049 65.5404 7.32714 65.5404C8.28642 65.5404 9.26611 65.9072 10.1029 66.4983C14.9401 70.1054 20.0018 73.1216 25.9208 73.1216C34.9625 73.1216 39.5548 67.8229 39.5548 61.4238C39.5548 53.7203 33.6358 49.5018 23.8594 49.5018H22.2878C19.8794 49.5018 17.818 47.4434 17.818 45.0387V40.1068C17.818 37.702 19.859 35.6437 22.7572 35.6437C30.1253 35.6437 36.2687 31.3029 36.2687 24.0682C36.2687 18.0358 32.7786 13.8173 25.533 13.8173C20.5937 13.8173 16.7158 15.8756 12.7358 18.9937C11.899 19.6051 10.9193 19.9515 9.83759 19.9515C8.51093 19.9515 7.18427 19.3401 6.225 18.26L3.69414 15.4884C2.97978 14.7751 2.6124 13.6746 2.6124 12.7168C2.6124 11.3921 3.22471 10.0675 4.18398 9.23191C10.4907 3.85172 17.3689 0 26.9209 0C41.4121 0 51.1681 8.19255 51.1681 21.4392Z" fill="#66B6C3"/>
<path d="M96.7849 54.6985C96.7849 57.1033 94.7235 59.1616 92.3151 59.1616H70.8436C68.4352 59.1616 66.3738 57.1237 66.3738 54.6985V50.7245C66.3738 48.3197 68.4148 46.2614 70.8436 46.2614H92.3151C94.7235 46.2614 96.7849 48.3197 96.7849 50.7245V54.6985Z" fill="#66B6C3"/>
<path d="M114.889 26.0246C114.052 26.636 113.072 26.8602 112.235 26.8602C110.909 26.8602 109.582 26.3711 108.623 25.291L105.602 21.6838C104.99 20.9705 104.643 19.9923 104.643 19.0345C104.643 17.7098 105.235 16.5074 106.337 15.6515L121.91 3.85175C123.849 2.40481 125.89 1.08014 128.788 1.08014H131.809C134.217 1.08014 135.666 2.89391 135.666 5.29869V81.2123C135.666 83.617 133.625 85.6754 131.196 85.6754H126.257C123.849 85.6754 121.787 83.617 121.787 81.2123V20.8482L114.909 26.0246H114.889Z" fill="#66B6C3"/>
<path d="M181.752 0.366821C201.06 0.366821 210 17.7098 210 43.5102C210 69.3106 201.305 86.6535 181.997 86.6535C162.689 86.6535 153.403 69.3106 153.403 43.5102C153.403 17.7098 162.322 0.366821 181.752 0.366821ZM181.997 73.7533C191.651 73.7533 195.264 64.3584 195.264 43.5102C195.264 22.662 191.406 13.3893 181.752 13.3893C172.098 13.3893 168.241 23.1511 168.241 43.5102C168.241 63.8693 172.955 73.7533 181.997 73.7533Z" fill="#66B6C3"/>
</g>
<defs>
<clipPath id="clip0_1044_1820">
<rect width="210" height="87" fill="white"/>
</clipPath>
</defs>
</svg>
