<svg width="190" height="190" viewBox="0 0 190 190" fill="none" xmlns="http://www.w3.org/2000/svg">
<g clip-path="url(#clip0_1125_132)">
<path d="M95.0118 190.024C147.485 190.024 190.024 147.485 190.024 95.0118C190.024 42.5382 147.485 0 95.0118 0C42.5382 0 0 42.5382 0 95.0118C0 147.485 42.5382 190.024 95.0118 190.024Z" fill="#5A3B34"/>
<path d="M57.5535 103.729C65.553 99.1104 67.2415 87.0587 61.3248 76.8108C55.4082 66.5628 44.1269 61.9993 36.1274 66.6178C28.1279 71.2363 26.4395 83.2879 32.3561 93.5359C38.2728 103.784 49.554 108.347 57.5535 103.729Z" fill="#CCAE87"/>
<path d="M158.314 93.53C164.23 83.282 162.542 71.2304 154.542 66.6119C146.543 61.9934 135.262 66.5569 129.345 76.8049C123.428 87.0528 125.117 99.1045 133.116 103.723C141.116 108.341 152.397 103.778 158.314 93.53Z" fill="#CCAE87"/>
<path d="M134.64 50.9619C137.977 39.6089 133.498 28.2937 124.636 25.6888C115.774 23.0839 105.884 30.1757 102.547 41.5287C99.2101 52.8817 103.689 64.1968 112.551 66.8017C121.413 69.4066 131.303 62.3149 134.64 50.9619Z" fill="#CCAE87"/>
<path d="M79.479 66.7822C88.3411 64.1773 92.8201 52.8622 89.483 41.5092C86.1459 30.1562 76.2565 23.0644 67.3944 25.6693C58.5323 28.2742 54.0534 39.5894 57.3904 50.9424C60.7275 62.2954 70.6169 69.3871 79.479 66.7822Z" fill="#CCAE87"/>
<path d="M133.116 122.509C130.517 120.218 122.627 113.579 121.375 103.469C120.997 100.28 117.501 84.9484 114.595 79.6805C112.611 76.0898 106.044 69.806 95.0354 69.9714C95.0354 69.9714 95.0117 69.9714 94.9881 69.9714C94.9881 69.9714 94.9645 69.9714 94.9409 69.9714C83.9325 69.806 77.3417 76.0898 75.381 79.6805C72.4754 84.9484 69.0737 100.303 68.6012 103.469C67.4909 111.075 59.4591 120.194 56.8606 122.509C51.1202 127.588 45.1672 137.982 46.7735 145.896C48.2145 152.935 52.7265 161.747 63.4514 161.959C74.1762 162.172 88.7989 158.203 95.248 158.203C101.697 158.203 115.729 162.172 126.478 161.959C137.226 161.77 141.738 152.935 143.155 145.896C144.762 137.982 138.809 127.564 133.068 122.509H133.116Z" fill="#CCAE87"/>
</g>
<defs>
<clipPath id="clip0_1125_132">
<rect width="190" height="190" fill="white"/>
</clipPath>
</defs>
</svg>
