<svg width="169" height="142" viewBox="0 0 169 142" fill="none" xmlns="http://www.w3.org/2000/svg">
<g clip-path="url(#clip0_1044_1768)">
<path d="M128.928 103.798C128.297 103.798 127.666 103.798 127.014 103.757C123.533 103.593 120.845 100.645 121.008 97.1439C121.171 93.643 124.021 90.9611 127.585 91.1044C135.22 91.4524 142.51 88.7295 148.089 83.4475C153.281 78.534 156.315 71.8803 156.396 65.1857C156.498 58.1021 153.342 51.0799 147.742 45.9412C141.878 40.5363 134.019 37.8749 126.159 38.6528L123.858 39.0009C121.008 39.4308 118.218 37.8749 117.098 35.2134C111.418 21.7217 98.3456 12.6727 84.5812 12.6727C70.0839 12.6727 57.2765 21.4146 51.9622 34.9677C50.9237 37.6087 48.2564 39.2261 45.4465 38.9394L42.9421 38.6733C35.0418 37.8749 27.1416 40.5159 21.2368 45.9616C15.6374 51.1208 12.5017 58.1225 12.5831 65.2062C12.6646 71.9008 15.6984 78.5545 20.8906 83.468C26.4697 88.75 33.759 91.4729 41.3946 91.1248C41.4964 91.1248 41.5982 91.1248 41.6796 91.1248C45.0189 91.1248 47.8084 93.7659 47.9713 97.1644C48.1342 100.665 45.4465 103.613 41.9647 103.777C30.8677 104.289 20.3205 100.358 12.237 92.6808C4.62182 85.4129 0.1423 75.4631 -0.000229805 65.3699C-0.14276 54.6831 4.49965 44.201 12.7257 36.6055C20.7684 29.1943 31.3971 25.3659 42.2294 25.8982C50.374 10.0317 66.5206 0 84.6016 0C102.683 0 118.178 10.2364 126.628 25.9187C137.48 25.325 148.19 29.1739 156.274 36.6055C164.5 44.201 169.142 54.6831 169 65.3699C168.857 75.4631 164.398 85.4129 156.742 92.6808C149.127 99.9077 139.313 103.818 128.928 103.818V103.798Z" fill="#384B61"/>
<path d="M84.5407 139.748C81.0589 139.748 78.249 136.923 78.249 133.422V50.4862C78.249 46.9853 81.0589 44.16 84.5407 44.16C88.0225 44.16 90.8324 46.9853 90.8324 50.4862V133.422C90.8324 136.923 88.0225 139.748 84.5407 139.748Z" fill="#384B61"/>
<path d="M84.5408 142C82.8712 142 81.2626 141.324 80.0817 140.137L61.736 121.691C59.2722 119.214 59.2722 115.201 61.736 112.744C64.1997 110.267 68.1906 110.267 70.6339 112.744L84.5204 126.707L98.407 112.744C100.871 110.267 104.862 110.267 107.305 112.744C109.748 115.221 109.769 119.234 107.305 121.691L88.9592 140.137C87.7783 141.324 86.1697 142 84.5001 142H84.5408Z" fill="#384B61"/>
</g>
<defs>
<clipPath id="clip0_1044_1768">
<rect width="169" height="142" fill="white"/>
</clipPath>
</defs>
</svg>
