<svg width="190" height="190" viewBox="0 0 190 190" fill="none" xmlns="http://www.w3.org/2000/svg">
<g clip-path="url(#clip0_1125_139)">
<path d="M95.0118 190.024C147.485 190.024 190.024 147.485 190.024 95.0118C190.024 42.5382 147.485 0 95.0118 0C42.5382 0 0 42.5382 0 95.0118C0 147.485 42.5382 190.024 95.0118 190.024Z" fill="#2D3593"/>
<path d="M97.8465 102.477L98.8387 95.5551L103.823 93.5708L106.823 88.4446L110.225 87.3579L121.115 72.4282L118.375 65.2232L112.257 63.7349L104.248 74.696L104.674 77.4127L98.1772 80.1057L96.3582 87.4761L90.8777 89.0116L88.0902 94.4921L83.8617 97.9647L78.2866 106.209L86.3421 114.548L89.8855 110.627L90.3816 106.28L92.673 105.311L97.8465 102.477Z" fill="#7BB57C"/>
<path d="M112.068 64.1365C111.383 64.987 105.099 71.9321 104.248 74.696C103.469 77.2946 103.941 81.8538 105.713 87.3344C105.997 88.2084 106.044 89.1297 105.831 90.0037C105.312 92.0117 103.658 95.2008 98.2246 95.6024" stroke="#EDDC93" stroke-width="1.5" stroke-miterlimit="10" stroke-linecap="round"/>
<path d="M87.6413 96.1693C86.9563 97.0197 84.405 96.0748 78.2866 105.17Z" fill="#EDDC93"/>
<path d="M87.6413 96.1693C86.9563 97.0197 84.405 96.0748 78.2866 105.17" stroke="#EDDC93" stroke-width="1.5" stroke-miterlimit="10" stroke-linecap="round"/>
<path d="M103.87 78.1213C103.185 78.9718 98.6259 76.9638 96.6179 84.1688C95.8384 86.9564 96.7833 92.2243 98.8385 98.1537C98.8385 98.1537 99.1692 99.1931 98.744 100.634C98.1534 102.618 96.5471 105.122 91.1138 105.524" stroke="#EDDC93" stroke-width="1.5" stroke-miterlimit="10" stroke-linecap="round"/>
<path d="M95.5077 87.7359C94.8226 88.5863 90.2634 86.5784 88.2554 93.7834C87.4758 96.5709 88.4208 101.839 90.476 107.768C90.476 107.768 90.7594 109.682 86.8853 113.792" stroke="#EDDC93" stroke-width="1.5" stroke-miterlimit="10" stroke-linecap="round"/>
<path d="M120.95 72.9716C119.698 74.4834 109.28 89.9565 106.351 88.5864Z" fill="#EDDC93"/>
<path d="M120.95 72.9716C119.698 74.4834 109.28 89.9565 106.351 88.5864" stroke="#EDDC93" stroke-width="1.5" stroke-miterlimit="10" stroke-linecap="round"/>
<path d="M84.9958 120.501C80.3185 126.218 77.6255 126.052 74.7671 129.785C71.9087 133.517 59.9554 155.841 57.1443 157.802C57.1443 157.802 51.333 164.275 43.75 158.203L43.6319 158.109C35.9544 151.872 40.9389 144.526 40.9389 144.526C42.309 141.384 61.798 125.226 64.8926 121.682C67.9873 118.139 67.2786 115.517 71.9559 109.8C76.6333 104.083 81.1453 108.548 82.8461 109.942C82.8461 109.942 89.6732 114.761 84.9958 120.477V120.501Z" fill="#F3B11C" stroke="#F3B11C" stroke-width="1.5" stroke-miterlimit="10"/>
<path d="M123.832 86.4603L116.627 67.491L96.9253 62.6955L112.729 49.9627L111.217 29.7414L128.179 40.8442L146.959 33.1431L141.644 52.7266L154.754 68.1997L134.51 69.1918L123.832 86.4603Z" fill="#EDDC93" stroke="#F3B11C" stroke-width="1.5" stroke-linecap="round" stroke-linejoin="round"/>
<path d="M67.3018 39.5686C72.2862 39.5686 76.3258 43.6081 76.3258 48.5925C76.3258 43.6081 80.3653 39.5686 85.3498 39.5686C80.3653 39.5686 76.3258 35.529 76.3258 30.5446C76.3258 35.529 72.2862 39.5686 67.3018 39.5686Z" stroke="#EDDC93" stroke-width="0.61" stroke-linecap="round" stroke-linejoin="round"/>
<path d="M49.75 92.5786C53.1753 92.5786 55.9629 95.3662 55.9629 98.7915C55.9629 95.3662 58.7504 92.5786 62.1757 92.5786C58.7504 92.5786 55.9629 89.7911 55.9629 86.3658C55.9629 89.7911 53.1753 92.5786 49.75 92.5786Z" stroke="#EDDC93" stroke-width="0.61" stroke-linecap="round" stroke-linejoin="round"/>
<path d="M154.235 113.154C159.267 113.154 163.353 117.241 163.353 122.273C163.353 117.241 167.44 113.154 172.472 113.154C167.44 113.154 163.353 109.068 163.353 104.036C163.353 109.068 159.267 113.154 154.235 113.154Z" stroke="#EDDC93" stroke-width="0.61" stroke-linecap="round" stroke-linejoin="round"/>
<path d="M109.067 124.871C116.202 124.871 121.989 130.659 121.989 137.793C121.989 130.659 127.777 124.871 134.911 124.871C127.777 124.871 121.989 119.084 121.989 111.95C121.989 119.084 116.202 124.871 109.067 124.871Z" stroke="#EDDC93" stroke-width="0.61" stroke-linecap="round" stroke-linejoin="round"/>
<path d="M166.188 78.0505C169.873 78.0505 172.873 81.0506 172.873 84.7358C172.873 81.0506 175.873 78.0505 179.559 78.0505C175.873 78.0505 172.873 75.0504 172.873 71.3652C172.873 75.0504 169.873 78.0505 166.188 78.0505Z" stroke="#EDDC93" stroke-width="0.61" stroke-linecap="round" stroke-linejoin="round"/>
<path d="M28.938 61.6561C35.4343 61.6561 40.7023 66.924 40.7023 73.4204C40.7023 66.924 45.9702 61.6561 52.4665 61.6561C45.9702 61.6561 40.7023 56.3882 40.7023 49.8918C40.7023 56.3882 35.4343 61.6561 28.938 61.6561Z" stroke="#EDDC93" stroke-width="0.61" stroke-linecap="round" stroke-linejoin="round"/>
</g>
<defs>
<clipPath id="clip0_1125_139">
<rect width="190" height="190" fill="white"/>
</clipPath>
</defs>
</svg>
