<svg width="147" height="135" viewBox="0 0 147 135" fill="none" xmlns="http://www.w3.org/2000/svg">
<g clip-path="url(#clip0_1045_1858)">
<path d="M3.47113 133.895C2.52444 133.737 2.0511 133.316 1.73553 131.737C1.05181 128.737 0.157715 119.053 0.157715 108.316C0.157715 90.4737 2.0511 79.3684 2.99779 76C3.41854 74.5789 3.94448 74.2105 4.68079 74.0526C5.83786 73.8421 7.2053 73.7368 8.46755 73.7368C9.7824 73.7368 11.1498 73.8421 12.0965 73.9473C12.7277 74.1052 12.9906 74.5789 12.9906 75.4737C12.9906 77.3684 10.3083 88.7894 10.3083 99.1579C10.3083 100.421 10.8343 100.947 11.6232 101.158C13.5692 101.21 16.83 100.053 22.6679 100.053C28.5058 100.053 31.3459 101.368 32.6082 101.21C33.5023 101.053 33.7652 100.421 33.7652 99C33.7652 87.421 31.5037 78 31.5037 75.421C31.5037 74.6316 31.8193 74.1579 32.5556 74C33.5548 73.8421 34.7645 73.7894 35.7638 73.7894C36.9209 73.7894 38.0253 73.7894 39.2876 73.9473C40.3395 74.1052 40.8654 74.5789 41.2862 76C42.2328 79.3158 43.8107 90.5263 43.8107 108.421C43.8107 119.158 42.9166 128.842 42.2328 131.842C41.8121 133.579 41.2862 134.053 40.1291 134.21C38.972 134.263 37.7624 134.368 36.6579 134.368C35.5534 134.368 34.3964 134.368 33.1341 134.21C32.1874 134.053 31.7141 133.737 31.7141 132.684C31.7141 130.474 33.6074 119.842 33.6074 114.526C33.6074 110.053 30.2414 107.579 23.3516 107.579C13.3588 107.579 10.2557 110.421 10.2557 115.474C10.2557 122.421 12.2017 130.789 12.2017 132.684C12.2017 133.737 11.8862 134 11.0447 134.21C9.7824 134.263 8.67793 134.263 7.41567 134.263C6.15342 134.263 4.83857 134.105 3.57632 133.947L3.47113 133.895Z" fill="#C76340"/>
<path d="M50.8584 110.947C50.8584 95.4737 57.0645 85.0526 69.1611 85.0526C81.2577 85.0526 86.5697 95 86.5697 110.947C86.5697 128 79.1013 135 68.2144 135C57.3275 135 50.8584 128 50.8584 110.947ZM77.4709 110.316C77.4709 99.0526 74.1575 92.9473 68.7929 92.9473C63.0602 92.9473 59.9571 99.1052 59.9571 110.316C59.9571 120.895 62.3765 126.421 68.6351 126.421C74.8938 126.421 77.4709 120.895 77.4709 110.316Z" fill="#8C361D"/>
<path d="M104.136 134.158C103.242 134.211 102.243 134.211 101.138 134.211C99.9285 134.211 98.7714 134.211 97.7722 134.158C96.7203 134.053 95.721 133.684 95.5632 131.895C94.7743 125.421 94.4587 117.947 94.4587 110.053C94.4587 97.1053 95.2476 83.2632 96.6677 71.7369C96.8781 70.1053 97.5618 69.9474 98.5611 69.7895C99.6129 69.7369 100.349 69.6316 101.296 69.6316C102.348 69.6316 103.295 69.7369 104.031 69.7895C104.82 69.8421 105.609 70.2632 105.609 71.3684C105.609 72.6842 104.136 84.3684 104.136 102.105C104.136 118.842 105.609 130.421 105.609 132.684C105.609 133.737 104.978 134.105 104.136 134.211V134.158Z" fill="#C88B2B"/>
<path d="M112.761 120.421C112.761 109.947 121.334 104.947 133.799 103.316C135.85 103 136.481 102.053 136.481 100.474C136.481 95.6842 134.115 93.0527 128.697 93.0527C124.595 93.0527 120.966 94.9474 117.916 97.9474C117.495 98.3684 117.127 98.579 116.759 98.579C116.443 98.579 116.127 98.4211 115.707 98C114.813 97.0527 114.129 95.4211 114.129 93.8421C114.129 89.2105 120.177 85.1053 129.434 85.1053C141.162 85.1053 145.212 91.4211 145.212 102.684C145.212 110.158 144.791 116.737 144.791 121.211C144.791 125.316 145.475 130.421 145.475 131.316C145.475 132.579 144.949 133.316 143.687 133.526C141.583 134.053 133.536 134.211 130.117 134.211C118.442 134.211 112.761 129.632 112.761 120.421ZM136.481 112.842C136.481 110.842 136.061 110.158 134.588 110.158C127.014 110.158 121.597 113.526 121.597 119.632C121.597 124.684 124.911 126.158 132.011 126.158C135.85 126.158 136.481 124.895 136.481 122.789V112.842Z" fill="#D26628"/>
<path d="M9.25653 6.73684V22.4211H29.2422V6.73684C29.2422 4.47368 29.663 2.78947 30.5045 1.68421C31.346 0.578947 32.4504 0 33.8179 0C35.1853 0 36.3424 0.578947 37.1839 1.68421C38.0254 2.78947 38.4987 4.47368 38.4987 6.73684V49.8947C38.4987 52.1579 38.078 53.8421 37.1839 55C36.2898 56.1053 35.1853 56.6842 33.8179 56.6842C32.4504 56.6842 31.2934 56.1053 30.5045 55C29.663 53.8421 29.2422 52.1579 29.2422 49.9474V31.5263H9.25653V49.9474C9.25653 52.2105 8.83578 53.8947 7.94168 55.0526C7.04759 56.1579 5.94311 56.7368 4.57567 56.7368C3.20823 56.7368 2.05116 56.1579 1.26225 55.0526C0.420751 53.8947 0 52.2105 0 50V6.73684C0 4.47368 0.420751 2.78947 1.20966 1.68421C2.05116 0.578947 3.15564 0 4.57567 0C5.99571 0 7.10018 0.578947 7.94168 1.68421C8.78318 2.78947 9.25653 4.47368 9.25653 6.73684Z" fill="#81B56A"/>
<path d="M70.2655 38.421H53.6459C53.6459 40.7368 54.0666 42.7895 54.8029 44.5263C55.5393 46.2631 56.5911 47.6316 57.8008 48.5263C59.063 49.421 60.4305 49.8947 61.9557 49.8947C62.955 49.8947 63.9017 49.7368 64.7432 49.4737C65.5847 49.2105 66.4262 48.7368 67.1625 48.1579C67.9514 47.5263 68.6877 46.8947 69.3715 46.2105C70.0552 45.5263 70.8967 44.5789 71.9486 43.3684C72.3693 42.9474 73.0004 42.6842 73.8419 42.6842C74.736 42.6842 75.4198 42.9474 75.9457 43.5263C76.4716 44.1053 76.7346 44.8947 76.7346 45.9474C76.7346 46.8947 76.419 47.9474 75.8405 49.1579C75.262 50.3684 74.3153 51.5789 73.1056 52.6842C71.896 53.7895 70.3707 54.7368 68.5299 55.5263C66.6892 56.2631 64.5854 56.6316 62.1661 56.6316C56.6963 56.6316 52.4362 54.7368 49.4384 51C46.4405 47.2631 44.9153 42.2105 44.9153 35.7895C44.9153 32.7895 45.2834 30 46.0198 27.421C46.7561 24.8421 47.8605 22.6316 49.2806 20.7895C50.7006 18.9474 52.4888 17.5263 54.5926 16.5263C56.6963 15.5263 59.0105 15.0526 61.5876 15.0526C64.901 15.0526 67.741 15.8947 70.1604 17.5789C72.5271 19.2631 74.3153 21.421 75.5249 24.1052C76.682 26.7895 77.3131 29.4737 77.3131 32.2631C77.3131 34.8421 76.682 36.4737 75.4723 37.2631C74.2627 38 72.5271 38.421 70.3181 38.421H70.2655ZM53.6459 32.6316H69.0559C68.8455 29.1579 68.0566 26.5263 66.6892 24.7895C65.3217 23.0526 63.5335 22.2105 61.3246 22.2105C59.1156 22.2105 57.4852 23.1052 56.1178 24.8421C54.7503 26.5789 53.9088 29.2105 53.6459 32.6316Z" fill="#66B6C3"/>
<path d="M83.151 50.4211V6.21053C83.151 4.15789 83.5191 2.63158 84.3081 1.57895C85.0444 0.526316 86.0962 0 87.3585 0C88.6208 0 89.6726 0.526316 90.4615 1.52632C91.2504 2.52632 91.6186 4.10526 91.6186 6.15789V50.4211C91.6186 52.4737 91.1979 54.0526 90.4089 55.0526C89.62 56.0526 88.5682 56.5789 87.3059 56.5789C86.0436 56.5789 85.0444 56.0526 84.2555 54.9474C83.4665 53.8947 83.0984 52.3684 83.0984 50.3684L83.151 50.4211Z" fill="#D3C952"/>
<path d="M99.1922 50.4211V6.21053C99.1922 4.15789 99.5604 2.63158 100.349 1.57895C101.086 0.526316 102.137 0 103.4 0C104.662 0 105.714 0.526316 106.503 1.52632C107.292 2.52632 107.66 4.10526 107.66 6.15789V50.4211C107.66 52.4737 107.239 54.0526 106.45 55.0526C105.661 56.0526 104.609 56.5789 103.347 56.5789C102.085 56.5789 101.086 56.0526 100.297 54.9474C99.5078 53.8947 99.1396 52.3684 99.1396 50.3684L99.1922 50.4211Z" fill="#6A67AF"/>
<path d="M147 35.8948C147 38.9474 146.632 41.7369 145.843 44.3158C145.054 46.8948 143.897 49.1053 142.424 50.9474C140.952 52.7895 139.164 54.2105 137.06 55.2105C135.009 56.2105 132.642 56.6842 130.065 56.6842C127.488 56.6842 125.174 56.2105 123.122 55.2105C121.071 54.2105 119.283 52.7895 117.758 50.9474C116.233 49.1053 115.128 46.8948 114.339 44.3684C113.55 41.8421 113.182 39.0527 113.182 36C113.182 32.9474 113.603 30.1053 114.339 27.5263C115.128 24.9474 116.285 22.7895 117.758 20.9474C119.23 19.1053 121.019 17.7369 123.122 16.7369C125.226 15.7369 127.54 15.2632 130.065 15.2632C132.589 15.2632 134.956 15.7369 137.06 16.7369C139.164 17.7369 140.952 19.1579 142.424 21C143.897 22.8421 145.054 25.0527 145.843 27.579C146.632 30.1053 147 32.9474 147 36V35.8948ZM138.48 35.8948C138.48 31.7369 137.691 28.4737 136.166 26.1579C134.64 23.8421 132.589 22.6842 130.012 22.6842C128.329 22.6842 126.909 23.2106 125.647 24.2106C124.385 25.2632 123.385 26.7895 122.702 28.7895C122.018 30.7895 121.65 33.1579 121.65 35.8421C121.65 38.5263 121.965 40.8421 122.649 42.8421C123.333 44.8421 124.279 46.3684 125.542 47.4211C126.804 48.4737 128.277 49 129.96 49C132.537 49 134.588 47.8421 136.113 45.5263C137.638 43.2105 138.427 40 138.427 35.8948H138.48Z" fill="#228489"/>
</g>
<defs>
<clipPath id="clip0_1045_1858">
<rect width="147" height="135" fill="white"/>
</clipPath>
</defs>
</svg>
