<svg width="56" height="55" viewBox="0 0 56 55" fill="none" xmlns="http://www.w3.org/2000/svg">
<g clip-path="url(#clip0_1069_217)">
<path d="M55.7783 27.5C55.7783 12.3123 43.466 0 28.2783 0C13.0906 0 0.77832 12.3123 0.77832 27.5C0.77832 40.3964 9.65752 51.2182 21.6354 54.1904V35.904H15.9649V27.5H21.6354V23.8788C21.6354 14.5189 25.8715 10.1805 35.0609 10.1805C36.8033 10.1805 39.8096 10.5226 41.0394 10.8636V18.4811C40.3904 18.4129 39.2629 18.3788 37.8626 18.3788C33.3537 18.3788 31.6113 20.0871 31.6113 24.5278V27.5H40.5939L39.0506 35.904H31.6113V54.7987C45.2282 53.1542 55.7794 41.5602 55.7794 27.5H55.7783Z" fill="#0866FF"/>
<path d="M39.0496 35.904L40.5929 27.5H31.6103V24.5278C31.6103 20.0871 33.3527 18.3788 37.8616 18.3788C39.2619 18.3788 40.3894 18.4129 41.0384 18.4811V10.8636C39.8086 10.5215 36.8023 10.1805 35.0599 10.1805C25.8705 10.1805 21.6344 14.5189 21.6344 23.8788V27.5H15.9639V35.904H21.6344V54.1904C23.7618 54.7184 25.9871 55 28.2773 55C29.4048 55 30.5169 54.9307 31.6092 54.7987V35.904H39.0485H39.0496Z" fill="white"/>
</g>
<defs>
<clipPath id="clip0_1069_217">
<rect width="55" height="55" fill="white" transform="translate(0.77832)"/>
</clipPath>
</defs>
</svg>
