<svg width="161" height="129" viewBox="0 0 161 129" fill="none" xmlns="http://www.w3.org/2000/svg">
<g clip-path="url(#clip0_1076_1274)">
<path d="M9.88928 70.2719H7.165C3.21244 70.2719 0 73.7571 0 78.0623V104.43C0 108.735 3.21244 112.221 7.165 112.221H9.88928C11.0861 112.221 12.0624 111.164 12.0624 109.855V72.6216C12.0624 71.3127 11.0861 70.2561 9.88928 70.2561V70.2719Z" fill="#008197"/>
<path d="M153.835 70.2719H151.111C149.914 70.2719 148.938 71.3285 148.938 72.6374V109.871C148.938 111.18 149.914 112.236 151.111 112.236H153.835C157.787 112.236 161 108.751 161 104.446V78.0781C161 73.7729 157.787 70.2876 153.835 70.2876V70.2719Z" fill="#008197"/>
<path d="M81.1928 0.0315403V0C80.9566 0 80.7362 0.0157702 80.4999 0.0157702C80.2637 0.0157702 80.0275 0 79.7913 0V0.0315403C45.3363 0.835819 14.9284 31.1776 14.4874 68.6791C14.4874 68.7579 14.4717 68.821 14.4717 68.8999V114.476C14.4717 116.179 15.7472 117.551 17.3062 117.551H25.7782C27.3372 117.551 28.6127 116.163 28.6127 114.476V68.8999C28.6127 67.1967 27.3372 65.8247 25.7782 65.8247H20.1092C26.0302 34.4105 50.8164 10.8341 80.4999 10.8341C110.184 10.8341 134.97 34.4105 140.891 65.8089H135.222C133.663 65.8089 132.387 67.1967 132.387 68.8841V114.46C132.387 116.163 133.663 117.535 135.222 117.535H143.694C145.253 117.535 146.528 116.147 146.528 114.46V68.8841C146.528 68.8841 146.528 68.7422 146.512 68.6633C146.072 31.1776 115.664 0.835819 81.1928 0.0315403Z" fill="#008197"/>
<path d="M81.8389 129C80.1697 129 78.8154 127.644 78.8154 125.972V55.5268C78.8154 53.8551 80.1697 52.4989 81.8389 52.4989C83.5081 52.4989 84.8624 53.8551 84.8624 55.5268V125.972C84.8624 127.644 83.5081 129 81.8389 129Z" fill="#008197"/>
<path d="M71.6817 109.776C70.0125 109.776 68.6582 108.42 68.6582 106.748V74.7506C68.6582 73.079 70.0125 71.7227 71.6817 71.7227C73.3509 71.7227 74.7052 73.079 74.7052 74.7506V106.748C74.7052 108.42 73.3509 109.776 71.6817 109.776Z" fill="#008197"/>
<path d="M61.5401 117.914C59.8709 117.914 58.5166 116.557 58.5166 114.886V66.6448C58.5166 64.9731 59.8709 63.6169 61.5401 63.6169C63.2093 63.6169 64.5636 64.9731 64.5636 66.6448V114.886C64.5636 116.557 63.2093 117.914 61.5401 117.914Z" fill="#008197"/>
<path d="M51.3829 104.272C49.7136 104.272 48.3594 102.916 48.3594 101.245V80.2702C48.3594 78.5985 49.7136 77.2423 51.3829 77.2423C53.0521 77.2423 54.4063 78.5985 54.4063 80.2702V101.245C54.4063 102.916 53.0521 104.272 51.3829 104.272Z" fill="#008197"/>
<path d="M38.1709 100.078C36.5017 100.078 35.1475 98.7213 35.1475 97.0496V84.465C35.1475 82.7934 36.5017 81.4372 38.1709 81.4372C39.8401 81.4372 41.1944 82.7934 41.1944 84.465V97.0496C41.1944 98.7213 39.8401 100.078 38.1709 100.078Z" fill="#008197"/>
<path d="M91.9795 109.776C90.3103 109.776 88.9561 108.42 88.9561 106.748V74.7506C88.9561 73.079 90.3103 71.7227 91.9795 71.7227C93.6487 71.7227 95.003 73.079 95.003 74.7506V106.748C95.003 108.42 93.6487 109.776 91.9795 109.776Z" fill="#008197"/>
<path d="M102.137 117.914C100.468 117.914 99.1133 116.557 99.1133 114.886V66.6448C99.1133 64.9731 100.468 63.6169 102.137 63.6169C103.806 63.6169 105.16 64.9731 105.16 66.6448V114.886C105.16 116.557 103.806 117.914 102.137 117.914Z" fill="#008197"/>
<path d="M112.278 104.272C110.609 104.272 109.255 102.916 109.255 101.245V80.2702C109.255 78.5985 110.609 77.2423 112.278 77.2423C113.948 77.2423 115.302 78.5985 115.302 80.2702V101.245C115.302 102.916 113.948 104.272 112.278 104.272Z" fill="#008197"/>
<path d="M122.435 100.078C120.765 100.078 119.411 98.7213 119.411 97.0496V84.465C119.411 82.7934 120.765 81.4372 122.435 81.4372C124.104 81.4372 125.458 82.7934 125.458 84.465V97.0496C125.458 98.7213 124.104 100.078 122.435 100.078Z" fill="#008197"/>
</g>
<defs>
<clipPath id="clip0_1076_1274">
<rect width="161" height="129" fill="white"/>
</clipPath>
</defs>
</svg>
