<svg width="194" height="125" viewBox="0 0 194 125" fill="none" xmlns="http://www.w3.org/2000/svg">
<g clip-path="url(#clip0_1076_1248)">
<path d="M138.704 7.09401C121.279 -3.34691 102.58 4.32917 86.849 22.719C71.1178 4.32917 52.4006 -3.34691 34.9943 7.09401C19.1539 16.5891 16.4774 50.7676 34.5938 73.814C51.6359 95.5144 83.0619 121.708 86.6852 124.709V125C86.6852 125 86.758 124.945 86.8672 124.854C86.9765 124.945 87.0493 125 87.0493 125V124.709C90.6726 121.726 122.08 95.5144 139.141 73.814C157.239 50.7676 154.581 16.5891 138.74 7.09401H138.704Z" fill="#ED8C53"/>
<path d="M179.139 0.621959L0.274414 73.4354L14.8952 109.281L193.76 36.468L179.139 0.621959Z" fill="white"/>
<path d="M193.497 35.8952L14.5811 108.584L15.1023 109.864L194.018 37.1758L193.497 35.8952Z" fill="#E76924"/>
<path d="M178.888 0.0559084L-0.0273438 72.7446L0.493933 74.0252L179.41 1.33649L178.888 0.0559084Z" fill="#E76924"/>
<path d="M21.4299 94.2775C20.9019 94.4958 20.3557 94.6595 19.8095 94.7686C19.2632 94.8778 18.7352 94.9505 18.2072 94.9505C17.6792 94.9505 17.1876 94.8778 16.7142 94.7686C16.4775 94.6959 16.2954 94.5867 16.168 94.4412C16.0223 94.2957 15.9495 94.1138 15.8949 93.9319C15.8584 93.75 15.8584 93.5681 15.8949 93.4044C15.9495 93.2407 16.0405 93.0952 16.1862 93.0042C16.3136 92.9133 16.5139 92.8951 16.7506 92.9678C17.4243 93.1316 18.0798 93.1679 18.7352 93.1134C19.3907 93.0588 20.0462 92.8769 20.738 92.604C21.7212 92.2039 22.3585 91.7127 22.668 91.1307C22.9775 90.5486 22.9958 89.9483 22.7408 89.3117C22.5224 88.8024 22.1946 88.4568 21.7394 88.2931C21.2843 88.1294 20.6288 88.1112 19.7548 88.2567L17.7338 88.5841C16.5321 88.766 15.5307 88.6932 14.766 88.3113C13.9831 87.9475 13.4004 87.2563 12.9817 86.2558C12.7268 85.6556 12.6175 85.0553 12.6357 84.455C12.6539 83.8548 12.7996 83.3091 13.0545 82.7634C13.3094 82.2359 13.6736 81.763 14.1652 81.3264C14.6568 80.908 15.2394 80.5624 15.8949 80.2896C16.6049 79.9985 17.3332 79.8348 18.0433 79.7803C18.7534 79.7257 19.4453 79.8166 20.119 80.0349C20.3193 80.0895 20.4831 80.1986 20.5924 80.3441C20.7016 80.4897 20.7927 80.6534 20.8291 80.8353C20.8655 81.0172 20.8655 81.1809 20.8109 81.3446C20.7562 81.5083 20.647 81.6174 20.5013 81.7084C20.3557 81.7993 20.1372 81.7993 19.8823 81.7448C19.2996 81.5992 18.7352 81.5447 18.2072 81.5811C17.6792 81.6174 17.133 81.763 16.5685 81.9994C16.0041 82.2359 15.5489 82.5269 15.203 82.8907C14.857 83.2545 14.6385 83.6547 14.5657 84.0912C14.4929 84.5278 14.5293 84.9825 14.7296 85.4555C14.9481 86.0012 15.2758 86.365 15.731 86.5469C16.168 86.7469 16.787 86.7651 17.5881 86.6378L19.591 86.3104C20.8655 86.1103 21.8851 86.1831 22.6862 86.5105C23.4874 86.8379 24.07 87.4745 24.4523 88.4204C24.689 89.0207 24.8165 89.6027 24.7801 90.1848C24.7619 90.7487 24.6162 91.2944 24.3431 91.8037C24.07 92.313 23.7058 92.7859 23.2142 93.2043C22.7226 93.6227 22.1036 93.9865 21.3935 94.2775H21.4299Z" fill="#E76924"/>
<path d="M31.7539 90.0393C31.4626 90.1484 31.2077 90.1484 30.971 90.0393C30.7343 89.9302 30.5704 89.7119 30.4248 89.3845L25.9458 78.3797L22.2679 79.8712C22.0312 79.9622 21.8127 79.9804 21.6124 79.8712C21.4121 79.7803 21.2664 79.5984 21.1572 79.3255C21.048 79.0527 21.0298 78.8162 21.1208 78.6161C21.1936 78.416 21.3575 78.2705 21.6124 78.1796L30.7525 74.4689C31.0074 74.3597 31.2259 74.3597 31.4262 74.4325C31.6265 74.5234 31.7721 74.6871 31.8814 74.96C31.9906 75.2328 32.0088 75.4693 31.936 75.6694C31.8632 75.8695 31.6993 76.0332 31.4444 76.1241L27.7665 77.6157L32.2455 88.6205C32.373 88.9479 32.4094 89.2208 32.3366 89.4572C32.2637 89.6937 32.0817 89.8756 31.7721 90.0029L31.7539 90.0393Z" fill="#E76924"/>
<path d="M43.0057 85.51C41.8586 85.983 40.7298 86.1103 39.6373 85.892C38.5449 85.6737 37.5435 85.1281 36.6513 84.2731C35.7591 83.4182 35.0308 82.2904 34.4482 80.8716C34.0112 79.7985 33.7563 78.798 33.6653 77.834C33.5743 76.8699 33.6653 75.9786 33.9202 75.1783C34.1751 74.3597 34.5757 73.6503 35.1583 73.0501C35.7409 72.4498 36.451 71.9587 37.3432 71.5949C38.5085 71.1219 39.6373 70.9946 40.7298 71.2129C41.8222 71.4312 42.8054 71.9587 43.6976 72.8136C44.5897 73.6685 45.318 74.7963 45.9007 76.1969C46.3376 77.2701 46.5926 78.2705 46.6836 79.2528C46.7746 80.2168 46.6836 81.1081 46.4287 81.9267C46.1738 82.7452 45.755 83.4546 45.1906 84.073C44.6079 84.6733 43.8979 85.1644 43.0239 85.51H43.0057ZM42.3138 83.7638C43.1149 83.4364 43.734 82.9453 44.1346 82.3086C44.5351 81.672 44.7354 80.8898 44.7172 79.9804C44.7172 79.0709 44.4805 78.0704 44.0253 76.9609C43.3516 75.3056 42.4959 74.1596 41.4581 73.523C40.4202 72.8863 39.2732 72.8136 38.0533 73.3229C37.2521 73.6503 36.6331 74.1414 36.2325 74.7781C35.832 75.4147 35.6317 76.1787 35.6499 77.0882C35.6499 77.9977 35.8866 78.9981 36.3418 80.1077C37.0155 81.7448 37.8712 82.8907 38.9272 83.5455C39.9833 84.2004 41.1121 84.2731 42.332 83.782L42.3138 83.7638Z" fill="#E76924"/>
<path d="M52.0367 81.7811C51.7454 81.8903 51.4905 81.8903 51.2538 81.7811C51.0353 81.672 50.8532 81.4537 50.7076 81.1263L45.9554 69.4667C45.828 69.1393 45.7916 68.8482 45.8826 68.6118C45.9736 68.3753 46.1557 68.1934 46.447 68.0843L50.5983 66.3926C51.9093 65.8651 53.0745 65.7923 54.0759 66.1925C55.0773 66.5927 55.8239 67.4294 56.3519 68.7027C56.6796 69.5212 56.807 70.3034 56.7342 71.0128C56.6614 71.7404 56.3701 72.377 55.8785 72.9409C55.3869 73.5048 54.7132 73.9595 53.8392 74.3051L53.8939 73.9777L54.349 73.7958C54.8042 73.6139 55.2594 73.5776 55.7146 73.6867C56.1516 73.7958 56.6432 74.0869 57.1348 74.5416L59.8841 77.0154C60.0844 77.1973 60.2483 77.3974 60.3211 77.6157C60.3939 77.834 60.3939 78.034 60.3211 78.2159C60.2483 78.3978 60.0844 78.5434 59.8295 78.6343C59.5746 78.7434 59.3379 78.7616 59.1376 78.7071C58.9373 78.6525 58.7188 78.5252 58.4821 78.3251L55.1502 75.3238C54.695 74.9236 54.2944 74.7053 53.9121 74.6508C53.5297 74.5962 53.0745 74.6871 52.5829 74.8872L50.6165 75.6876L52.5465 80.3987C52.674 80.7261 52.7104 80.999 52.6193 81.2354C52.5465 81.4719 52.3462 81.6538 52.0549 81.7811H52.0367ZM49.9793 74.1778L52.9471 72.9773C53.821 72.6135 54.4037 72.1406 54.695 71.5585C54.9863 70.9764 54.9499 70.267 54.6222 69.4485C54.2944 68.6481 53.821 68.1388 53.202 67.9205C52.5829 67.7023 51.8364 67.7568 50.9625 68.1206L47.9947 69.3212L49.9793 74.196V74.1778Z" fill="#E76924"/>
<path d="M63.7622 77.0154C63.4709 77.1246 63.216 77.1246 62.9793 77.0154C62.7608 76.9063 62.5787 76.688 62.4331 76.3606L57.6263 64.5736C57.4989 64.2462 57.4625 63.9552 57.5535 63.7187C57.6445 63.4823 57.8266 63.3004 58.1179 63.1912C58.4092 63.0821 58.6642 63.0639 58.8826 63.1912C59.1011 63.3004 59.2832 63.5186 59.4289 63.8642L64.2356 75.6512C64.3631 75.9786 64.3995 76.2515 64.3084 76.4879C64.2174 76.7244 64.0353 76.9063 63.744 77.0336L63.7622 77.0154Z" fill="#E76924"/>
<path d="M68.4236 74.96C68.1141 75.0873 67.841 75.0873 67.5861 74.96C67.3494 74.8508 67.1491 74.6144 67.0034 74.2688L62.3423 62.8638C62.1967 62.5182 62.1785 62.2271 62.2695 61.9725C62.3605 61.7178 62.5608 61.5359 62.8704 61.4086L69.1883 58.8257C69.425 58.7347 69.6435 58.7165 69.8256 58.8075C70.0077 58.8984 70.1533 59.0621 70.2626 59.3168C70.3718 59.5896 70.39 59.8079 70.3172 60.008C70.2444 60.2081 70.0987 60.3536 69.8438 60.4446L64.2723 62.7183L66.002 66.9747L71.1911 64.8647C71.446 64.7555 71.6645 64.7555 71.8466 64.8647C72.0287 64.9556 72.1743 65.1375 72.2654 65.3922C72.3746 65.665 72.3928 65.8833 72.3382 66.0652C72.2654 66.2471 72.1197 66.3926 71.8648 66.5017L66.6757 68.6118L68.4964 73.0682L74.0497 70.7945C74.2864 70.7036 74.5049 70.6854 74.687 70.7945C74.869 70.8855 75.0147 71.0674 75.1239 71.322C75.2332 71.5949 75.2514 71.8131 75.1786 72.0132C75.1057 72.1951 74.9419 72.3407 74.7052 72.4498L68.3872 75.0327L68.4236 74.96Z" fill="#E76924"/>
<path d="M81.6243 69.7759C81.0962 69.9942 80.55 70.1579 80.0038 70.267C79.4576 70.3944 78.9296 70.4489 78.4015 70.4489C77.8735 70.4489 77.3819 70.3762 76.9085 70.267C76.6718 70.1943 76.4898 70.0851 76.3623 69.9396C76.2166 69.7759 76.1438 69.6122 76.0892 69.4303C76.0528 69.2484 76.0528 69.0665 76.0892 68.9028C76.1438 68.7391 76.2349 68.5936 76.3805 68.5026C76.508 68.4117 76.7082 68.3935 76.9449 68.4662C77.6186 68.6299 78.2741 68.6845 78.9296 68.6118C79.585 68.5572 80.2405 68.3753 80.9324 68.1024C81.9156 67.7023 82.5528 67.2111 82.8624 66.6291C83.1719 66.047 83.1901 65.4467 82.9352 64.8101C82.7167 64.3008 82.389 63.9552 81.9338 63.7915C81.4786 63.6278 80.8231 63.6096 79.9492 63.7551L77.9281 64.0825C76.7265 64.2644 75.725 64.1735 74.9603 63.8097C74.1774 63.4459 73.5948 62.7547 73.176 61.7542C72.9211 61.154 72.8119 60.5537 72.8301 59.9716C72.8483 59.3896 72.9939 58.8257 73.2488 58.28C73.5037 57.7525 73.8679 57.2795 74.3595 56.843C74.8511 56.4246 75.4337 56.079 76.0892 55.8062C76.7993 55.5151 77.5276 55.3514 78.2377 55.2969C78.9478 55.2423 79.6396 55.3332 80.3133 55.5515C80.5136 55.6061 80.6775 55.7152 80.7867 55.8607C80.9142 56.0063 80.987 56.17 81.0234 56.3519C81.0598 56.5338 81.0598 56.6975 81.0052 56.8612C80.9506 57.0249 80.8413 57.134 80.6957 57.225C80.55 57.3159 80.3315 57.3159 80.0766 57.2614C79.494 57.1158 78.9296 57.0613 78.4015 57.0976C77.8735 57.134 77.3273 57.2795 76.7629 57.516C76.1984 57.7525 75.7433 58.0435 75.3973 58.4073C75.0514 58.7711 74.8329 59.1713 74.7601 59.6078C74.669 60.0444 74.7236 60.4991 74.9239 60.9721C75.1424 61.5178 75.4701 61.8815 75.9253 62.0634C76.3805 62.2453 76.9814 62.2817 77.7825 62.1544L79.7853 61.827C81.0598 61.6269 82.0794 61.6996 82.8806 62.0271C83.6817 62.3545 84.2643 62.9911 84.6467 63.937C84.8834 64.5373 85.0108 65.1193 84.9744 65.7014C84.9562 66.2653 84.8105 66.811 84.5374 67.3203C84.2643 67.8296 83.9002 68.3025 83.4086 68.7209C82.917 69.1393 82.2979 69.5031 81.5878 69.7941L81.6243 69.7759Z" fill="#E76924"/>
<path d="M93.8594 64.7737C93.5681 64.901 93.295 64.901 93.0401 64.7737C92.8034 64.6646 92.6031 64.4281 92.4575 64.0825L87.7418 52.5138C87.5961 52.1682 87.5779 51.8772 87.6689 51.6225C87.76 51.3679 87.9602 51.186 88.2698 51.0586L94.4421 48.5485C94.697 48.4393 94.9155 48.4393 95.0793 48.5121C95.2614 48.603 95.3889 48.7667 95.4981 49.0214C95.6074 49.2942 95.6256 49.5125 95.5709 49.7126C95.5163 49.8945 95.3525 50.0582 95.0975 50.1492L89.7628 52.3137L91.5289 56.6429L96.5177 54.6056C96.7544 54.5147 96.9547 54.5147 97.1368 54.5875C97.3189 54.6602 97.4645 54.8421 97.5738 55.0968C97.683 55.3696 97.7012 55.6061 97.6284 55.788C97.5555 55.9881 97.4099 56.1336 97.1732 56.2245L92.1844 58.2618L94.26 63.3367C94.5513 64.0461 94.4057 64.5191 93.8412 64.7373L93.8594 64.7737Z" fill="#E76924"/>
<path d="M107.569 59.2258C106.422 59.6988 105.293 59.8261 104.201 59.6078C103.109 59.3896 102.107 58.8439 101.215 57.9889C100.323 57.134 99.5945 56.0063 99.0118 54.5875C98.5749 53.5143 98.32 52.5138 98.2289 51.5498C98.1561 50.5857 98.2289 49.6944 98.4838 48.8941C98.7387 48.0755 99.1393 47.3661 99.7219 46.7659C100.305 46.1656 101.015 45.6745 101.907 45.3107C103.072 44.8377 104.201 44.7104 105.293 44.9287C106.386 45.147 107.369 45.6745 108.261 46.5294C109.153 47.3843 109.882 48.5121 110.464 49.9127C110.901 50.9677 111.156 51.9863 111.247 52.9686C111.338 53.9508 111.247 54.8239 110.992 55.6425C110.737 56.461 110.319 57.1704 109.754 57.7889C109.172 58.3891 108.461 58.8802 107.588 59.2258H107.569ZM106.859 57.4978C107.66 57.1704 108.279 56.6793 108.68 56.0426C109.081 55.406 109.281 54.6238 109.263 53.7143C109.263 52.8049 109.026 51.8044 108.571 50.6949C107.897 49.0396 107.041 47.8936 106.003 47.257C104.966 46.6203 103.819 46.5476 102.599 47.0569C101.798 47.3843 101.179 47.8754 100.778 48.5121C100.377 49.1487 100.177 49.9127 100.177 50.8222C100.177 51.7317 100.414 52.7321 100.869 53.8417C101.543 55.4788 102.398 56.6247 103.454 57.2795C104.51 57.9344 105.639 58.0071 106.859 57.516V57.4978Z" fill="#E76924"/>
<path d="M116.582 55.5151C116.29 55.6243 116.035 55.6243 115.799 55.5151C115.58 55.406 115.398 55.1877 115.252 54.8603L110.5 43.2007C110.373 42.8732 110.336 42.5822 110.428 42.3457C110.519 42.1093 110.719 41.9274 110.992 41.8182L115.143 40.1266C116.454 39.5991 117.619 39.5263 118.621 39.9265C119.622 40.3267 120.369 41.1634 120.897 42.4367C121.225 43.2552 121.352 44.0374 121.279 44.7468C121.206 45.4744 120.915 46.111 120.423 46.6749C119.932 47.2388 119.258 47.6935 118.384 48.0391L118.439 47.7117L118.894 47.5298C119.349 47.3479 119.804 47.3115 120.26 47.4207C120.715 47.5298 121.188 47.8209 121.698 48.2756L124.447 50.7494C124.666 50.9313 124.811 51.1314 124.884 51.3497C124.957 51.568 124.957 51.768 124.884 51.9499C124.811 52.1318 124.648 52.2774 124.393 52.3683C124.138 52.4774 123.901 52.4956 123.701 52.4411C123.5 52.3865 123.282 52.2592 123.045 52.0591L119.695 49.0578C119.258 48.6576 118.839 48.4393 118.457 48.3847C118.075 48.3302 117.619 48.4211 117.128 48.6212L115.161 49.4216L117.091 54.1327C117.219 54.4601 117.255 54.733 117.164 54.9694C117.091 55.2059 116.891 55.3878 116.6 55.5151H116.582ZM114.524 47.9118L117.492 46.7113C118.366 46.3475 118.949 45.8746 119.24 45.2925C119.531 44.6922 119.495 44.001 119.167 43.1825C118.839 42.3821 118.366 41.8728 117.747 41.6545C117.128 41.4363 116.381 41.4908 115.507 41.8546L112.54 43.0551L114.524 47.93V47.9118Z" fill="#E76924"/>
<path d="M132.896 48.8759C132.604 48.985 132.349 48.985 132.113 48.8759C131.894 48.7667 131.712 48.5485 131.567 48.221L126.742 36.3977C126.614 36.0703 126.578 35.7792 126.669 35.561C126.76 35.3245 126.942 35.1608 127.233 35.0335C127.524 34.9243 127.779 34.9061 127.998 35.0153C128.216 35.1244 128.398 35.3427 128.544 35.6701L130.674 40.9088H130.711L133.697 33.0144C133.806 32.7597 133.915 32.5597 134.025 32.4141C134.152 32.2686 134.298 32.1595 134.498 32.0685C134.771 31.9594 134.99 31.9594 135.172 32.0685C135.354 32.1595 135.481 32.3232 135.536 32.5415C135.59 32.7597 135.572 32.9962 135.481 33.2509L132.331 41.3453L131.967 40.3449L140.233 44.1647C140.525 44.2921 140.725 44.4739 140.834 44.7104C140.943 44.9287 140.943 45.147 140.871 45.3471C140.798 45.5471 140.634 45.7109 140.379 45.8018C140.142 45.8927 139.942 45.9109 139.76 45.8746C139.578 45.82 139.359 45.7472 139.086 45.6199L131.148 42.0183H131.111L133.333 47.4753C133.46 47.8027 133.497 48.0755 133.405 48.312C133.333 48.5485 133.132 48.7304 132.841 48.8577L132.896 48.8759Z" fill="#E76924"/>
<path d="M144.057 44.1829C143.748 44.3103 143.475 44.3103 143.22 44.1829C142.983 44.0738 142.783 43.8373 142.637 43.4917L137.976 32.0867C137.83 31.7411 137.812 31.4501 137.903 31.1954C137.994 30.9408 138.195 30.7589 138.504 30.6316L144.822 28.0486C145.059 27.9577 145.277 27.9395 145.459 28.0304C145.641 28.1214 145.787 28.2851 145.896 28.5397C146.006 28.8126 146.024 29.0309 145.951 29.2309C145.878 29.431 145.732 29.5765 145.478 29.6675L139.906 31.9412L141.636 36.1976L146.825 34.0876C147.08 33.9785 147.298 33.9785 147.48 34.0876C147.662 34.1786 147.808 34.3605 147.899 34.6151C148.008 34.888 148.027 35.1062 147.972 35.2881C147.899 35.47 147.754 35.6155 147.499 35.7247L142.31 37.8347L144.13 42.2912L149.702 40.0175C149.938 39.9265 150.157 39.9083 150.339 40.0175C150.521 40.1084 150.667 40.2903 150.776 40.545C150.885 40.8178 150.903 41.0361 150.831 41.2362C150.758 41.4181 150.594 41.5636 150.357 41.6727L144.039 44.2557L144.057 44.1829Z" fill="#E76924"/>
<path d="M154.253 40.0175C153.943 40.1448 153.652 40.1448 153.415 40.0175C153.178 39.9083 152.978 39.6719 152.833 39.3263L148.171 27.9213C148.026 27.5757 148.008 27.2664 148.099 27.0118C148.19 26.7571 148.39 26.5752 148.699 26.4479L155.017 23.865C155.254 23.774 155.473 23.7558 155.655 23.8468C155.837 23.9377 155.982 24.1014 156.092 24.3561C156.201 24.6289 156.219 24.8472 156.146 25.0473C156.073 25.2474 155.928 25.3929 155.673 25.4838L150.101 27.7576L151.831 32.014L157.02 29.904C157.275 29.7948 157.494 29.7948 157.676 29.904C157.858 29.9949 158.003 30.1768 158.094 30.4315C158.204 30.7043 158.222 30.9226 158.167 31.1045C158.094 31.2864 157.949 31.4319 157.694 31.541L152.505 33.651L154.326 38.1075L159.897 35.8338C160.134 35.7429 160.352 35.7247 160.534 35.8338C160.716 35.9248 160.862 36.1067 160.971 36.3613C161.081 36.6342 161.099 36.8524 161.026 37.0343C160.953 37.2162 160.789 37.3618 160.552 37.4709L154.235 40.0538L154.253 40.0175Z" fill="#E76924"/>
<path d="M164.45 36.0339C164.158 36.143 163.904 36.143 163.667 36.0339C163.43 35.9248 163.266 35.7065 163.121 35.3791L158.369 23.7194C158.241 23.392 158.205 23.101 158.296 22.8645C158.387 22.6281 158.569 22.4462 158.86 22.337L163.011 20.6454C164.322 20.1179 165.488 20.0633 166.507 20.4817C167.527 20.9182 168.292 21.7913 168.82 23.101C169.348 24.4288 169.42 25.593 169.002 26.6116C168.583 27.6302 167.709 28.4124 166.398 28.9399L163.139 30.2678L164.923 34.6515C165.051 34.9789 165.087 35.2518 164.996 35.4882C164.923 35.7247 164.723 35.9066 164.432 36.0339H164.45ZM162.502 28.6671L165.506 27.4483C166.38 27.1027 166.944 26.6116 167.217 26.0114C167.49 25.3929 167.454 24.6653 167.108 23.8286C166.762 22.9919 166.289 22.4462 165.67 22.2097C165.051 21.9732 164.304 22.0096 163.448 22.3734L160.444 23.5921L162.52 28.6852L162.502 28.6671Z" fill="#E76924"/>
<path d="M178.76 30.2496C178.232 30.4678 177.686 30.6316 177.14 30.7407C176.593 30.868 176.065 30.9226 175.537 30.9226C175.009 30.9226 174.518 30.8498 174.044 30.7407C173.808 30.6679 173.626 30.5588 173.498 30.4133C173.353 30.2678 173.28 30.0859 173.225 29.904C173.189 29.7221 173.189 29.5402 173.225 29.3765C173.28 29.2128 173.371 29.0672 173.516 28.9763C173.644 28.8853 173.844 28.8671 174.081 28.9399C174.754 29.1036 175.41 29.14 176.065 29.0854C176.721 29.0309 177.376 28.849 178.068 28.5761C179.051 28.1759 179.689 27.6848 179.998 27.1027C180.308 26.5207 180.326 25.9204 180.071 25.2838C179.853 24.7744 179.525 24.4288 179.07 24.2651C178.614 24.1014 177.959 24.0832 177.103 24.2288L175.082 24.5562C173.881 24.7381 172.879 24.6471 172.114 24.2833C171.35 23.9195 170.749 23.2283 170.33 22.2279C170.093 21.6276 169.966 21.0274 169.984 20.4271C170.002 19.8268 170.148 19.2811 170.403 18.7355C170.658 18.2079 171.022 17.735 171.514 17.2985C172.005 16.8801 172.588 16.5345 173.243 16.2616C173.953 15.9706 174.682 15.8069 175.392 15.7523C176.102 15.6978 176.794 15.7887 177.467 16.007C177.668 16.0616 177.832 16.1707 177.941 16.3162C178.068 16.4617 178.141 16.6254 178.177 16.8073C178.214 16.9892 178.214 17.1529 178.159 17.3167C178.105 17.4804 177.995 17.5895 177.85 17.6804C177.704 17.7714 177.486 17.7714 177.231 17.7168C176.648 17.5713 176.084 17.5167 175.556 17.5531C175.028 17.5895 174.481 17.735 173.917 17.9715C173.353 18.2079 172.897 18.499 172.551 18.8628C172.205 19.2266 171.987 19.6267 171.914 20.0633C171.823 20.4999 171.878 20.9546 172.078 21.4275C172.296 21.9732 172.624 22.337 173.079 22.5189C173.535 22.7008 174.135 22.7372 174.937 22.6099L176.939 22.2825C178.214 22.0824 179.233 22.1551 180.035 22.4825C180.836 22.81 181.418 23.4466 181.801 24.3925C182.037 24.9927 182.165 25.5748 182.128 26.1569C182.11 26.7208 181.965 27.2664 181.692 27.7758C181.418 28.2851 181.054 28.758 180.563 29.1764C180.071 29.5947 179.452 29.9585 178.742 30.2496H178.76Z" fill="#E76924"/>
</g>
<defs>
<clipPath id="clip0_1076_1248">
<rect width="194" height="125" fill="white"/>
</clipPath>
</defs>
</svg>
