<svg width="116" height="163" viewBox="0 0 116 163" fill="none" xmlns="http://www.w3.org/2000/svg">
<g clip-path="url(#clip0_1044_1712)">
<path d="M108.388 58.8072H7.61174C3.40789 58.8072 0 62.2083 0 66.4038V155.403C0 159.599 3.40789 163 7.61174 163H108.388C112.592 163 116 159.599 116 155.403V66.4038C116 62.2083 112.592 58.8072 108.388 58.8072Z" fill="#607D37"/>
<path d="M32.5139 63.8797H16.9014V41.017C16.9014 18.397 35.3349 0 57.9999 0C80.6649 0 99.0984 18.397 99.0984 41.017V63.4428H83.4859V41.017C83.4859 26.9887 72.0561 15.5816 57.9999 15.5816C43.9437 15.5816 32.5139 26.9887 32.5139 41.017V63.8797Z" fill="#607D37"/>
<path d="M57.9999 118.876C67.4284 118.876 75.0716 111.248 75.0716 101.839C75.0716 92.4289 67.4284 84.8008 57.9999 84.8008C48.5715 84.8008 40.9282 92.4289 40.9282 101.839C40.9282 111.248 48.5715 118.876 57.9999 118.876Z" fill="white"/>
<path d="M64.8093 114.945H51.1665V138.535H64.8093V114.945Z" fill="white"/>
</g>
<defs>
<clipPath id="clip0_1044_1712">
<rect width="116" height="163" fill="white"/>
</clipPath>
</defs>
</svg>
