<svg width="190" height="190" viewBox="0 0 190 190" fill="none" xmlns="http://www.w3.org/2000/svg">
<g clip-path="url(#clip0_1125_115)">
<path d="M95.0118 190.024C147.485 190.024 190.024 147.485 190.024 95.0118C190.024 42.5382 147.485 0 95.0118 0C42.5382 0 0 42.5382 0 95.0118C0 147.485 42.5382 190.024 95.0118 190.024Z" fill="#F3B11C"/>
<path d="M45.2855 83.6019C44.5296 82.1136 45.4745 80.7435 47.0336 79.7041L62.4122 68.2705C66.5699 65.3413 66.5699 63.3097 62.4122 60.3804L47.1517 49.3957C45.5454 48.0256 44.5059 46.9862 45.2619 45.4979C45.8525 44.3404 47.3171 44.1278 48.8053 44.8837L79.8932 57.711C83.1296 58.9867 83.5076 62.9081 83.5312 64.042C83.5312 65.1759 82.8225 68.9556 79.468 70.373L48.829 83.8617C47.6714 84.4051 45.8525 84.6413 45.3091 83.6019H45.2855Z" fill="#231F20"/>
<path d="M144.714 83.6019C145.47 82.1136 144.525 80.7435 142.966 79.7041L127.588 68.2705C123.43 65.3413 123.43 63.3097 127.588 60.3804L142.848 49.3957C144.455 48.0256 145.494 46.9862 144.738 45.4979C144.147 44.3404 142.683 44.1278 141.195 44.8837L110.107 57.711C106.87 58.9867 106.492 62.9081 106.469 64.042C106.469 65.1759 107.177 68.9556 110.532 70.373L141.171 83.8617C142.328 84.4051 144.147 84.6413 144.691 83.6019H144.714Z" fill="#231F20"/>
<path d="M152.227 108.359C152.227 133.612 126.619 165.243 95.0119 165.243C63.4042 165.243 37.7969 133.612 37.7969 108.359C37.7969 108.359 62.6719 118.351 95.0119 117.69C129.667 116.981 152.227 108.359 152.227 108.359Z" fill="#231F20"/>
<path d="M94.9647 134.628C119.107 134.132 135.384 129.809 144.242 127.21C146.864 121.517 147.857 118.115 148.494 113.367C148.494 113.367 129.596 119.816 94.941 120.525C62.6011 121.186 41.4585 113.367 41.4585 113.367C41.6947 116.296 43.4428 124.021 45.8051 127.375C55.0654 130.257 72.0976 135.1 94.941 134.628H94.9647Z" fill="white"/>
<path d="M95.0119 150.101C84.1689 150.101 74.8142 153.597 70.373 158.652C77.8379 162.763 86.1769 165.219 95.0119 165.219C103.847 165.219 112.186 162.763 119.651 158.652C115.21 153.597 105.878 150.101 95.0119 150.101Z" fill="#C64583"/>
</g>
<defs>
<clipPath id="clip0_1125_115">
<rect width="190" height="190" fill="white"/>
</clipPath>
</defs>
</svg>
