<svg width="125" height="165" viewBox="0 0 125 165" fill="none" xmlns="http://www.w3.org/2000/svg">
<g clip-path="url(#clip0_1044_1826)">
<path d="M39.3753 164.204L32.8906 150.049C32.5791 149.389 31.8001 149.079 31.1186 149.389L17.604 155.369C16.494 155.855 15.3646 154.768 15.8124 153.641L36.5711 101.625C36.8438 100.945 37.6227 100.596 38.3237 100.868L61.9061 110.227C62.5876 110.498 62.9382 111.275 62.6655 111.974L41.8484 164.126C41.4005 165.233 39.8621 165.252 39.3753 164.184V164.204Z" fill="#F3B11C"/>
<path d="M85.9167 164.204L92.4014 150.049C92.7129 149.389 93.4919 149.079 94.1734 149.389L107.688 155.369C108.798 155.855 109.927 154.768 109.48 153.641L88.7209 101.625C88.4482 100.945 87.6693 100.596 86.9683 100.868L63.3859 110.227C62.7044 110.498 62.3538 111.275 62.6265 111.974L83.4436 164.126C83.8915 165.233 85.4299 165.252 85.9167 164.184V164.204Z" fill="#F3B11C"/>
<path d="M24.4586 22.6201C30.8069 17.2223 27.4964 11.7469 33.0464 8.89271C37.9537 6.36858 40.7968 10.9703 48.5862 9.22278C56.3171 7.47531 57.0376 2.17465 62.5097 2.44648C68.527 2.73773 68.8191 9.20337 76.1021 11.1644C84.1836 13.339 89.0715 6.79574 93.9009 9.86352C97.9903 12.4653 95.1082 17.5524 99.7234 22.9307C105.001 29.0857 112.128 26.3868 114.776 31.6486C117.035 36.1338 112.225 38.8715 113.472 45.8614C114.971 54.2881 122.877 55.4919 122.546 61.511C122.215 67.297 114.835 67.763 113.316 75.0636C111.914 81.7816 117.425 84.9853 115.263 89.4317C112.849 94.4022 105.41 91.451 99.8792 97.3341C94.7382 102.81 97.854 108.906 93.2388 111.702C88.5067 114.556 84.281 108.693 76.7253 110.731C69.0138 112.809 68.3907 120.284 62.8018 120.265C57.1545 120.226 56.5898 112.576 48.8783 110.576C41.6731 108.712 38.051 114.323 33.0074 111.702C28.1585 109.197 30.6511 103.567 25.0817 97.6642C18.9865 91.218 12.0345 93.7421 9.69772 88.4608C7.49722 83.5097 13.1835 80.3254 11.6451 73.452C9.98982 66.0156 2.33676 65.2195 2.41465 59.7247C2.51202 54.2104 10.2819 53.6085 11.9566 46.4827C13.6508 39.3181 7.71143 34.1534 10.1846 29.3769C12.424 25.0277 18.3829 27.746 24.4391 22.6006L24.4586 22.6201Z" fill="white"/>
<path d="M62.8603 122.692H62.8019C58.8877 122.672 56.7456 120.09 54.8567 117.818C53.1041 115.721 51.4488 113.741 48.2941 112.925C45.4121 112.188 43.2505 112.925 40.9527 113.721C38.3237 114.634 35.3638 115.663 31.917 113.877C28.5091 112.11 27.6913 109.139 26.9707 106.518C26.3281 104.207 25.666 101.819 23.3292 99.3339C20.7198 96.5768 17.9545 95.7419 15.2867 94.9458C12.2488 94.0333 9.11359 93.1013 7.4973 89.451C5.99784 86.0532 7.14677 83.2766 8.17887 80.8107C9.05517 78.6944 9.89253 76.6945 9.28885 73.9762C8.60728 70.9667 6.69889 69.3357 4.67365 67.5882C2.45368 65.6854 -0.0583968 63.5302 2.34791e-05 59.7052C0.0584438 55.8413 2.68736 53.7638 4.98522 51.9192C7.02993 50.2883 8.93833 48.7544 9.60043 45.9584C10.282 43.046 9.40569 40.5024 8.47097 37.823C7.4194 34.7552 6.30942 31.5903 8.02308 28.2896C9.67832 25.0859 12.7162 24.4645 15.384 23.9403C17.7987 23.4549 20.3108 22.9501 22.8424 20.7754C25.4518 18.5426 26.0555 16.4068 26.6786 14.1351C27.3797 11.5721 28.1781 8.65965 31.8975 6.75685C35.1885 5.06763 37.9148 5.80545 40.3295 6.44619C42.4911 7.02868 44.711 7.61117 48.0215 6.87335C51.2931 6.13553 53.0651 4.6793 54.7788 3.26191C56.7261 1.65035 58.8877 -0.155364 62.6071 -3.34017e-05C66.6576 0.19413 68.7802 2.52409 70.6691 4.58222C72.2854 6.34911 73.8044 8.01891 76.7254 8.79557C80.0943 9.70813 82.84 8.75673 85.5079 7.82475C88.4679 6.79568 91.8173 5.65012 95.2057 7.80533C98.1656 9.68872 98.6135 12.4653 99.003 14.9311C99.3535 17.1058 99.6846 19.1639 101.573 21.3579C103.754 23.9015 106.286 24.581 108.973 25.3189C111.875 26.1149 115.166 26.9887 116.957 30.5613C118.554 33.7456 117.62 36.3668 116.782 38.6773C116.062 40.6966 115.38 42.5994 115.886 45.4342C116.529 48.9874 118.476 50.929 120.56 52.9871C122.741 55.1618 125.214 57.6082 124.981 61.6468C124.747 65.5107 122.274 67.6076 120.093 69.4522C118.067 71.1608 116.315 72.6365 115.711 75.5489C115.166 78.209 115.984 80.17 116.86 82.2281C117.873 84.5969 119.002 87.2958 117.464 90.4801C115.75 93.9944 112.362 94.7323 109.382 95.373C106.714 95.9555 103.949 96.5574 101.671 98.9844C99.5872 101.198 99.1782 103.508 98.7693 105.955C98.3019 108.693 97.7567 111.799 94.5241 113.76C91.2136 115.76 88.0979 114.731 85.3326 113.838C82.8206 113.003 80.4643 112.226 77.368 113.061C74.1938 113.916 72.5191 115.877 70.7665 117.935C68.8776 120.148 66.716 122.672 62.8603 122.672V122.692ZM45.9184 107.761C47.0284 107.761 48.2163 107.897 49.521 108.227C54.1946 109.45 56.6483 112.362 58.6151 114.712C60.3287 116.75 61.2829 117.818 62.8603 117.838H62.8798C64.4182 117.838 65.3334 116.847 67.086 114.809C69.0528 112.518 71.487 109.644 76.1217 108.401C80.6395 107.178 84.0863 108.324 86.8905 109.256C89.422 110.091 90.6878 110.459 92.012 109.644C93.2973 108.867 93.5504 107.644 93.9788 105.178C94.4462 102.421 95.0499 98.9844 98.1267 95.7031C101.457 92.1693 105.273 91.3344 108.35 90.6742C111.232 90.0529 112.479 89.6646 113.102 88.4025C113.628 87.2958 113.335 86.3638 112.401 84.1698C111.388 81.7621 110.103 78.7526 110.96 74.6169C111.894 70.0541 114.718 67.6853 116.957 65.7825C118.983 64.0739 120.034 63.1031 120.132 61.3944C120.229 59.6081 119.177 58.482 117.133 56.4627C114.854 54.191 111.992 51.3562 111.096 46.3079C110.356 42.2111 111.427 39.2404 112.206 37.0657C112.946 35.0076 113.258 34.0368 112.615 32.7747C111.836 31.2214 110.395 30.7554 107.708 30.037C104.748 29.241 101.048 28.2313 97.893 24.5422C95.1278 21.3191 94.602 18.096 94.232 15.7466C93.862 13.4555 93.6478 12.6012 92.6157 11.941C91.272 11.0867 89.8115 11.5333 87.1242 12.4653C84.0669 13.5137 80.289 14.8146 75.4791 13.5332C71.1949 12.3876 68.9165 9.9023 67.1055 7.90241C65.3529 5.9802 64.3403 4.98996 62.4124 4.89288C60.6598 4.77638 59.7835 5.47537 57.9335 7.00926C55.9862 8.62082 53.552 10.6207 49.151 11.6109C44.6721 12.6206 41.5953 11.8051 39.1222 11.1449C36.8048 10.5236 35.7338 10.2906 34.1759 11.0867C32.4428 11.9798 32.0728 13.0672 31.4301 15.436C30.7486 17.9018 29.8139 21.2997 26.075 24.5034C22.5697 27.4935 19.0061 28.2119 16.4161 28.7361C13.8846 29.241 12.9499 29.5128 12.4241 30.5613C11.7036 31.9593 12.2099 33.5708 13.1446 36.2891C14.1572 39.2015 15.423 42.8324 14.4104 47.1234C13.3588 51.5503 10.4378 53.8997 8.0815 55.7637C6.01732 57.4141 4.94628 58.346 4.9268 59.8411C4.90733 61.3167 5.93942 62.2876 7.92571 63.9962C10.2236 65.9767 13.0862 68.4231 14.0988 73.0054C15.053 77.2187 13.7677 80.2865 12.7357 82.7524C11.8009 84.9853 11.3725 86.1308 12.0151 87.5482C12.6967 89.0821 14.0404 89.5481 16.7472 90.3636C19.7266 91.2567 23.446 92.3635 26.9513 96.072C30.106 99.431 31.0212 102.674 31.7417 105.295C32.4233 107.761 32.7933 108.887 34.2343 109.625C35.7727 110.421 36.9996 110.052 39.4337 109.197C41.2642 108.557 43.3868 107.819 45.9963 107.819L45.9184 107.761Z" fill="#F3B11C"/>
<path d="M54.2725 79.4322L52.9483 77.8984L44.4189 67.7048C43.1531 66.1903 43.3673 63.9574 44.8668 62.6954C46.3662 61.4333 48.6252 61.6469 49.8909 63.1419L55.1488 69.4328C58.985 62.7924 66.9107 50.9679 77.4069 45.4925C79.1595 44.5799 81.3016 45.2595 82.2168 46.9876C83.1321 48.7156 82.4505 50.8708 80.7174 51.7834C68.3323 58.249 59.4524 76.3839 59.0824 77.1605L58.2256 78.9274L54.2725 79.4322Z" fill="#7BB57C"/>
<path d="M62.5098 98.8097C41.7901 98.8097 24.9456 82.0146 24.9456 61.3556C24.9456 40.6966 41.7901 23.9015 62.5098 23.9015C83.2295 23.9015 100.074 40.6966 100.074 61.3556C100.074 82.0146 83.2295 98.8097 62.5098 98.8097ZM62.5098 28.7556C44.4774 28.7556 29.8139 43.3761 29.8139 61.3556C29.8139 79.3351 44.4774 93.9556 62.5098 93.9556C80.5422 93.9556 95.2057 79.3351 95.2057 61.3556C95.2057 43.3761 80.5422 28.7556 62.5098 28.7556Z" fill="#F3B11C"/>
</g>
<defs>
<clipPath id="clip0_1044_1826">
<rect width="125" height="165" fill="white"/>
</clipPath>
</defs>
</svg>
