<svg width="190" height="190" viewBox="0 0 190 190" fill="none" xmlns="http://www.w3.org/2000/svg">
<g clip-path="url(#clip0_1125_105)">
<path d="M95.0118 190.024C147.485 190.024 190.024 147.485 190.024 95.0118C190.024 42.5382 147.485 0 95.0118 0C42.5382 0 0 42.5382 0 95.0118C0 147.485 42.5382 190.024 95.0118 190.024Z" fill="#744B9E"/>
<path d="M104.792 58.5851C103.351 58.0181 99.5239 56.6716 98.5317 48.4508C97.8703 42.9703 99.831 41.0568 100.185 38.6473C100.54 36.2377 100.185 24.7333 100.185 24.7333C100.185 24.7333 100.138 22.8671 102.571 22.5364C104.319 22.3001 106.162 23.3159 106.162 25.1585C106.162 26.1979 106.28 31.7493 106.375 35.529C106.375 36.0724 107.154 36.1432 107.296 35.6235L110.745 21.1899C110.745 21.1899 111.454 18.6149 114.595 19.5126C116.131 19.9615 116.934 21.0954 116.698 22.5127C116.58 23.1978 115.091 30.0485 113.863 35.8125C113.65 36.8283 115.068 37.2771 115.493 36.3558L122.202 21.5442C122.202 21.5442 123.43 19.1819 126.029 20.4575C127.683 21.2607 127.99 22.56 127.588 23.812C127.423 24.3553 123.738 32.458 121.139 38.1748C120.69 39.1433 121.966 39.9465 122.674 39.167L131.675 28.9146C131.675 28.9146 134.037 26.6231 135.974 28.702C137.344 30.1902 136.848 31.9383 135.927 33.1195C135.006 34.3006 125.273 45.7106 124.753 46.3011C124.753 46.3011 124.73 46.3248 124.706 46.3484C124.493 46.6791 122.415 50.0572 125.273 49.5611C127.446 49.1831 133.494 46.2775 134.888 48.5217C135.974 50.2698 136.305 52.136 134.108 53.1282C131.911 54.1203 122.178 58.278 120.525 59.1284C118.871 59.9789 114.123 62.3648 104.745 58.6323L104.792 58.5851Z" fill="#F89938"/>
<path d="M85.1136 59.3883C86.5782 58.8686 90.4524 57.711 91.8225 49.5611C92.7438 44.1042 90.854 42.1198 90.6178 39.6867C90.3815 37.2535 91.232 25.7727 91.232 25.7727C91.232 25.7727 91.3501 23.9065 88.9405 23.4813C87.216 23.1742 85.3026 24.0955 85.2317 25.9381C85.1845 26.9775 84.8065 32.5289 84.5466 36.285C84.4994 36.8283 83.7198 36.8755 83.6253 36.3322L80.8378 21.7568C80.8378 21.7568 80.2472 19.1583 77.0581 19.9142C75.499 20.2922 74.6486 21.4024 74.814 22.8198C74.9084 23.5049 76.066 30.4264 77.0345 36.2141C77.1999 37.2299 75.7589 37.6315 75.3809 36.6629L69.357 21.5678C69.357 21.5678 68.2467 19.1583 65.5773 20.2922C63.9001 21.0009 63.5221 22.3001 63.8529 23.5758C63.9946 24.1427 67.3018 32.3872 69.6405 38.222C70.0421 39.1906 68.7428 39.9465 68.0814 39.1433L59.5535 28.513C59.5535 28.513 57.2857 26.1034 55.2777 28.1114C53.8367 29.5524 54.2619 31.3005 55.1123 32.5289C55.9628 33.7573 65.1994 45.5924 65.6718 46.2066C65.6718 46.2066 65.6955 46.2302 65.6955 46.2539C65.8844 46.5846 67.8215 50.0572 64.9868 49.443C62.8371 48.9705 56.9313 45.7814 55.4194 47.9547C54.2383 49.6556 53.8367 51.4982 55.9864 52.5848C58.1361 53.6715 67.6798 58.278 69.2862 59.1993C70.8925 60.1206 75.5463 62.7191 85.0663 59.4119L85.1136 59.3883Z" fill="#82CCB4"/>
<path d="M129.289 77.2473C128.627 75.8299 126.737 72.2628 131.604 65.5775C134.864 61.0891 137.604 61.0655 139.494 59.53C141.384 57.9945 148.99 49.3485 148.99 49.3485C148.99 49.3485 150.219 47.9547 152.227 49.3721C153.668 50.3879 154.329 52.3958 153.077 53.7424C152.368 54.4983 148.683 58.6559 146.155 61.4671C145.801 61.8687 146.321 62.4592 146.77 62.1521L159.125 53.955C159.125 53.955 161.392 52.5612 163.093 55.3723C163.92 56.7425 163.731 58.1362 162.597 58.9867C162.054 59.4119 156.29 63.4278 151.471 66.7823C150.62 67.3728 151.353 68.6721 152.297 68.2705L167.298 62.0104C167.298 62.0104 169.802 61.1364 170.842 63.8294C171.503 65.5302 170.842 66.7114 169.708 67.3492C169.212 67.6327 161.014 71.058 155.203 73.4676C154.235 73.8692 154.589 75.3338 155.652 75.2157L169.212 73.8455C169.212 73.8455 172.519 73.7747 172.495 76.6094C172.495 78.641 170.936 79.5623 169.448 79.8222C167.96 80.082 153.053 81.7829 152.297 81.8538C152.297 81.8538 152.25 81.8538 152.227 81.8538C151.849 81.9482 148.022 82.9877 150.455 84.594C152.297 85.7988 158.699 87.8068 158.203 90.3817C157.802 92.4132 156.786 93.996 154.494 93.2164C152.203 92.4369 142.234 88.8462 140.462 88.3501C138.691 87.854 133.564 86.3421 129.265 77.2236L129.289 77.2473Z" fill="#8AD5EA"/>
<path d="M127.612 110.485C126.714 111.761 124.281 114.973 127.966 122.391C130.423 127.352 133.139 127.848 134.746 129.667C136.352 131.486 142.423 141.289 142.423 141.289C142.423 141.289 143.416 142.872 145.612 141.809C147.195 141.053 148.187 139.163 147.172 137.628C146.605 136.777 143.652 132.053 141.644 128.864C141.36 128.391 141.951 127.919 142.352 128.273L153.195 138.407C153.195 138.407 155.203 140.155 157.329 137.675C158.369 136.447 158.416 135.053 157.448 134.013C156.975 133.517 151.967 128.604 147.762 124.493C147.03 123.761 147.951 122.604 148.825 123.147L162.574 131.816C162.574 131.816 164.889 133.116 166.377 130.612C167.322 129.029 166.85 127.777 165.834 126.95C165.385 126.596 157.873 121.871 152.534 118.517C151.636 117.95 152.251 116.58 153.266 116.863L166.424 120.454C166.424 120.454 169.661 121.068 170.11 118.257C170.44 116.249 169.046 115.091 167.653 114.595C166.259 114.099 151.825 109.965 151.069 109.753H151.022C150.668 109.587 147.053 107.934 149.723 106.752C151.731 105.855 158.392 104.957 158.322 102.335C158.274 100.256 157.518 98.5316 155.133 98.9332C152.747 99.3348 142.329 101.201 140.486 101.414C138.644 101.626 133.352 102.264 127.588 110.532L127.612 110.485Z" fill="#D0B6D8"/>
<path d="M76.0896 127.423C74.743 126.643 71.3413 124.47 64.2544 128.745C59.5062 131.604 59.2463 134.344 57.5455 136.116C55.8446 137.888 46.608 144.715 46.608 144.715C46.608 144.715 45.1198 145.825 46.3482 147.951C47.2222 149.463 49.1829 150.313 50.6239 149.156C51.4271 148.518 55.8919 145.187 58.9156 142.919C59.3408 142.589 59.8842 143.156 59.5534 143.581L50.3405 155.203C50.3405 155.203 48.7577 157.353 51.4035 159.266C52.7028 160.211 54.0965 160.117 55.0651 159.077C55.5375 158.558 60.0259 153.172 63.7583 148.636C64.4198 147.833 65.6482 148.66 65.1757 149.581L57.6636 163.991C57.6636 163.991 56.5769 166.401 59.1755 167.676C60.8291 168.479 62.0339 167.912 62.7898 166.849C63.1205 166.377 67.2073 158.487 70.1129 152.912C70.609 151.967 72.0264 152.463 71.8374 153.502L69.3334 166.897C69.3334 166.897 68.979 170.18 71.8138 170.393C73.8454 170.558 74.8848 169.07 75.2628 167.629C75.6407 166.188 78.5936 151.471 78.759 150.715V150.668C78.8771 150.29 80.2472 146.581 81.641 149.132C82.6804 151.069 84.1214 157.636 86.7672 157.353C88.8224 157.14 90.4996 156.243 89.909 153.904C89.3185 151.565 86.6018 141.337 86.2475 139.518C85.8931 137.699 84.8301 132.478 76.1132 127.423H76.0896Z" fill="#F2D525"/>
<path d="M106.918 128.698C108.193 127.824 111.43 125.391 118.824 129.123C123.761 131.627 124.233 134.321 126.052 135.95C127.871 137.58 137.628 143.699 137.628 143.699C137.628 143.699 139.187 144.691 138.124 146.912C137.344 148.494 135.478 149.463 133.942 148.447C133.092 147.88 128.391 144.88 125.202 142.872C124.753 142.589 124.257 143.179 124.611 143.581L134.675 154.471C134.675 154.471 136.423 156.503 133.919 158.605C132.69 159.644 131.297 159.668 130.257 158.699C129.761 158.227 124.871 153.172 120.784 148.943C120.076 148.211 118.894 149.132 119.438 150.006L128.037 163.826C128.037 163.826 129.312 166.164 126.808 167.629C125.225 168.55 123.973 168.101 123.147 167.062C122.792 166.613 118.115 159.054 114.808 153.715C114.264 152.817 112.871 153.408 113.154 154.447L116.674 167.629C116.674 167.629 117.264 170.889 114.477 171.314C112.469 171.621 111.311 170.228 110.815 168.834C110.319 167.44 106.28 152.959 106.067 152.227V152.18C105.902 151.825 104.272 148.211 103.091 150.857C102.193 152.865 101.248 159.526 98.6023 159.432C96.5235 159.361 94.799 158.605 95.2006 156.219C95.6022 153.833 97.5393 143.439 97.7519 141.596C97.9645 139.754 98.6259 134.462 106.941 128.769L106.918 128.698Z" fill="#E5AF88"/>
<path d="M62.2941 113.461C62.8374 114.926 64.3966 118.658 58.9633 124.895C55.3253 129.076 52.585 128.864 50.5535 130.234C48.5219 131.604 40.183 139.541 40.183 139.541C40.183 139.541 38.8364 140.817 36.9466 139.234C35.6001 138.1 35.1276 136.045 36.4978 134.817C37.2773 134.132 41.3169 130.305 44.0571 127.73C44.4587 127.352 43.9863 126.738 43.5138 126.997L30.4739 134.084C30.4739 134.084 28.088 135.265 26.647 132.336C25.9383 130.895 26.269 129.525 27.4738 128.769C28.0643 128.391 34.1591 124.919 39.2617 121.989C40.1593 121.47 39.5451 120.099 38.5766 120.43L23.0799 125.367C23.0799 125.367 20.505 126.029 19.7018 123.241C19.1821 121.47 19.9616 120.383 21.1428 119.84C21.6625 119.603 30.1432 116.91 36.1434 115.021C37.1592 114.713 36.8994 113.225 35.8599 113.225L22.2295 113.391C22.2295 113.391 18.9222 113.178 19.2057 110.343C19.3947 108.312 21.0247 107.532 22.5129 107.414C24.0012 107.296 39.0018 106.918 39.7814 106.894C39.7814 106.894 39.8286 106.894 39.8522 106.894C40.2302 106.823 44.1516 106.138 41.8602 104.319C40.1357 102.949 33.9229 100.398 34.6552 97.8702C35.2221 95.8859 36.4033 94.374 38.6002 95.3661C40.7972 96.3583 50.4117 100.799 52.1362 101.437C53.8607 102.099 58.8215 104.036 62.3177 113.509L62.2941 113.461Z" fill="#B9CE6E"/>
<path d="M58.7978 84.8775C58.2544 86.3422 57.0024 90.1691 48.8288 91.3739C43.3483 92.177 41.4112 90.24 38.978 89.9565C36.5449 89.673 25.0641 90.2636 25.0641 90.2636C25.0641 90.2636 23.1979 90.3581 22.8199 87.9249C22.5364 86.2004 23.5049 84.3106 25.3475 84.2633C26.387 84.2633 31.9384 83.9799 35.7181 83.7909C36.2614 83.7673 36.3323 82.9877 35.7889 82.8696L21.2844 79.7513C21.2844 79.7513 18.7095 79.0899 19.5127 75.9244C19.9143 74.3653 21.0482 73.5385 22.4655 73.7511C23.1506 73.8456 30.0485 75.1685 35.8125 76.2788C36.8283 76.4677 37.2536 75.0504 36.3086 74.6488L21.3316 68.2942C21.3316 68.2942 18.9457 67.113 20.1505 64.4909C20.9064 62.8136 22.2057 62.4829 23.4577 62.8372C24.0247 63.0026 32.1746 66.4752 37.9622 68.9556C38.9308 69.3808 39.7103 68.0816 38.9072 67.3965L28.4422 58.656C28.4422 58.656 26.0799 56.3409 28.1351 54.3802C29.5997 52.9628 31.3478 53.4353 32.5526 54.3093C33.7573 55.1834 45.4035 64.6798 45.9941 65.1523C45.9941 65.1523 46.0177 65.1759 46.0413 65.1759C46.372 65.3885 49.7974 67.3965 49.2304 64.5381C48.8052 62.3648 45.7578 56.3882 47.9548 54.9472C49.6793 53.8133 51.5455 53.4353 52.5849 55.6322C53.6243 57.8292 58.0182 67.4437 58.9159 69.0737C59.8135 70.7037 62.294 75.4047 58.7978 84.8539V84.8775Z" fill="#E594B1"/>
</g>
<defs>
<clipPath id="clip0_1125_105">
<rect width="190" height="190" fill="white"/>
</clipPath>
</defs>
</svg>
