<svg width="82" height="82" viewBox="0 0 82 82" fill="none" xmlns="http://www.w3.org/2000/svg">
<path d="M40.52 2.5C19.55 2.5 2.5 19.55 2.5 40.52C2.5 61.49 19.55 78.54 40.52 78.54C61.49 78.54 78.54 61.49 78.54 40.52C78.54 19.55 61.48 2.5 40.52 2.5Z" fill="white"/>
<path d="M40.52 81.04C18.18 81.04 0 62.86 0 40.52C0 18.18 18.18 0 40.52 0C62.86 0 81.04 18.18 81.04 40.52C81.04 62.86 62.86 81.04 40.52 81.04ZM40.52 2.5C19.55 2.5 2.5 19.55 2.5 40.52C2.5 61.49 19.55 78.54 40.52 78.54C61.49 78.54 78.54 61.49 78.54 40.52C78.54 19.55 61.48 2.5 40.52 2.5ZM28.93 62.24C28.33 62.24 27.73 62.08 27.18 61.77C26.09 61.14 25.43 60.01 25.43 58.74V21.87C25.43 20.61 26.08 19.47 27.18 18.84C28.28 18.21 29.58 18.21 30.68 18.84L62.6 37.27C63.69 37.9 64.35 39.03 64.35 40.3C64.35 41.57 63.7 42.7 62.6 43.33L30.68 61.76C30.13 62.08 29.53 62.23 28.93 62.23V62.24Z" fill="#E76924"/>
</svg>
