<svg width="204" height="99" viewBox="0 0 204 99" fill="none" xmlns="http://www.w3.org/2000/svg">
<g clip-path="url(#clip0_1026_1649)">
<path d="M4.22852 0C5.19556 0 6.05769 0.681056 6.30857 1.61351L10.1083 15.8654L14.3277 1.58151C14.6151 0.64906 15.4727 0 16.4397 0H18.912C19.8791 0 20.7731 0.64449 21.0605 1.58151L25.3939 15.87L29.2621 1.61808C29.513 0.685627 30.3706 0.00457085 31.3376 0.00457085H32.8794C33.8464 0.00457085 34.6356 0.831894 34.6356 1.80091C34.6356 1.94261 34.5991 2.12544 34.5626 2.26714L28.6144 23.517C28.327 24.4495 27.4694 25.1305 26.5024 25.1305H23.9251C23.209 25.1305 22.5293 24.6277 22.2784 23.9101L17.4432 8.97715L12.6764 23.9101C12.4256 24.6277 11.7459 25.1305 11.0297 25.1305H8.45248C7.48544 25.1305 6.62332 24.486 6.3405 23.549L0.0729842 2.26257C0 2.08431 0 1.90147 0 1.72321C0 0.790757 0.75265 0 1.71969 0H4.22852Z" fill="#008197"/>
<path d="M42.1621 23.7638C42.1621 24.518 41.5554 25.126 40.8028 25.126H38.1525C37.3999 25.126 36.7932 24.518 36.7932 23.7638V1.36211C36.7932 0.607923 37.3999 0 38.1525 0H40.8028C41.5554 0 42.1621 0.612494 42.1621 1.36211V10.0833C43.0927 9.25597 44.493 8.68461 46.1398 8.68461C49.8665 8.68461 52.6946 10.5861 52.6946 15.6506V23.7638C52.6946 24.518 52.0834 25.126 51.3308 25.126H48.6805C47.9279 25.126 47.3212 24.518 47.3212 23.7638V16.3316C47.3212 14.7181 46.2447 13.7125 44.7439 13.7125C43.8134 13.7125 42.9148 14.0005 42.1621 14.7547V23.7638Z" fill="#008197"/>
<path d="M63.9798 8.54297C69.4946 8.54297 72.934 12.2042 72.934 17.0493C72.934 21.8944 69.4946 25.5557 63.9798 25.5557C58.4649 25.5557 55.0255 21.8944 55.0255 17.0493C55.0255 12.2042 58.4649 8.54297 63.9798 8.54297ZM63.9798 20.5323C65.8089 20.5323 67.2048 19.2388 67.2048 17.0493C67.2048 14.8599 65.7724 13.5663 63.9798 13.5663C62.1871 13.5663 60.7548 14.8599 60.7548 17.0493C60.7548 19.0971 62.1506 20.5323 63.9798 20.5323Z" fill="#008197"/>
<path d="M75.6208 1.36211C75.6208 0.607923 76.2274 0 76.9801 0H79.6303C80.383 0 80.9897 0.612494 80.9897 1.36211V18.4479C80.9897 19.9198 81.1676 20.5322 81.9932 20.5322C82.1711 20.5322 82.5315 20.4957 82.9602 20.4957C83.5669 20.4957 83.8543 20.7105 84.0687 21.355L84.5705 22.9365C84.6434 23.1513 84.6434 23.3296 84.6434 23.4759C84.6434 24.1204 84.2831 24.5546 83.6764 24.7694C82.1346 25.3773 80.9532 25.5602 79.8447 25.5602C77.1215 25.5602 75.6162 24.0152 75.6162 20.5003V1.36211H75.6208Z" fill="#008197"/>
<path d="M90.9885 18.8457C91.4902 20.3906 92.9955 21.0717 94.7517 21.0717C95.9331 21.0717 96.7953 20.93 97.6528 20.6054C97.9402 20.4957 98.1911 20.4637 98.442 20.4637C98.9802 20.4637 99.4455 20.7151 99.6964 21.2179L100.271 22.3652C100.381 22.58 100.413 22.7949 100.413 23.0097C100.413 23.4759 100.162 23.9422 99.7694 24.1936C97.7258 25.3408 96.1156 25.5557 94.1815 25.5557C88.881 25.5557 85.4417 22.1458 85.4417 17.0493C85.4417 12.3459 88.881 8.54297 94.1815 8.54297C98.3371 8.54297 101.991 11.5597 101.991 16.1534C101.991 16.8345 101.954 17.3373 101.881 17.7669C101.808 18.3063 101.202 18.8457 100.663 18.8457H90.9885ZM93.9991 13.0315C92.2064 13.0315 91.3123 13.8223 90.8106 15.2575H96.6128C96.6128 14.1468 95.7187 13.0315 93.9991 13.0315Z" fill="#008197"/>
<path d="M111.807 5.42467e-05C112.774 5.42467e-05 113.636 0.681111 113.887 1.61356L117.682 15.8655L121.911 1.577C122.198 0.644544 123.056 -0.0045166 124.023 -0.0045166H126.495C127.462 -0.0045166 128.356 0.639973 128.644 1.577L132.977 15.8655L136.845 1.61356C137.096 0.681111 137.954 5.42467e-05 138.921 5.42467e-05H140.463C141.43 5.42467e-05 142.219 0.827378 142.219 1.7964C142.219 1.93809 142.182 2.12093 142.146 2.26262L136.198 23.5125C135.91 24.4449 135.053 25.126 134.086 25.126H131.504C130.788 25.126 130.108 24.6232 129.857 23.9056L125.022 8.97263L120.255 23.9056C120.004 24.6232 119.325 25.126 118.608 25.126H116.031C115.064 25.126 114.202 24.4815 113.919 23.5445L107.652 2.25805C107.579 2.07979 107.579 1.89696 107.579 1.71869C107.579 0.78624 108.331 -0.0045166 109.298 -0.0045166H111.807V5.42467e-05Z" fill="#008197"/>
<path d="M149.855 8.54297C155.37 8.54297 158.809 12.2042 158.809 17.0493C158.809 21.8944 155.37 25.5557 149.855 25.5557C144.34 25.5557 140.901 21.8944 140.901 17.0493C140.901 12.2042 144.34 8.54297 149.855 8.54297ZM149.855 20.5369C151.684 20.5369 153.08 19.2433 153.08 17.0539C153.08 14.8645 151.648 13.5709 149.855 13.5709C148.062 13.5709 146.63 14.8645 146.63 17.0539C146.63 19.1016 148.026 20.5369 149.855 20.5369Z" fill="#008197"/>
<path d="M166.869 23.7639C166.869 24.5181 166.263 25.126 165.51 25.126H162.86C162.107 25.126 161.5 24.5181 161.5 23.7639V10.3393C161.5 9.5851 162.107 8.97717 162.86 8.97717H165.619C166.299 8.97717 166.874 9.5531 166.874 10.2342C167.517 9.33827 168.557 8.68921 170.026 8.68921C170.815 8.68921 171.495 8.79891 171.96 8.94061C172.535 9.11887 172.854 9.5531 172.854 10.0879C172.854 10.3027 172.817 10.5541 172.713 10.8055L171.673 13.0681C171.422 13.644 170.92 13.932 170.24 13.932C170.062 13.932 169.88 13.8954 169.702 13.8588C169.415 13.7857 169.022 13.7171 168.698 13.7171C167.804 13.7171 167.23 14.2199 166.869 14.8644V23.7684V23.7639Z" fill="#008197"/>
<path d="M174.355 1.36663C174.355 0.612439 174.961 0.0045166 175.714 0.0045166H178.364C179.117 0.0045166 179.724 0.61701 179.724 1.36663V18.4525C179.724 19.9243 179.901 20.5368 180.727 20.5368C180.905 20.5368 181.265 20.5002 181.694 20.5002C182.301 20.5002 182.588 20.715 182.803 21.3595L183.304 22.941C183.377 23.1559 183.377 23.3341 183.377 23.4804C183.377 24.1249 183.017 24.5591 182.41 24.7739C180.869 25.3819 179.687 25.5647 178.579 25.5647C175.855 25.5647 174.35 24.0198 174.35 20.5048V1.36663H174.355Z" fill="#008197"/>
<path d="M201.081 23.7638C201.081 24.518 200.474 25.1259 199.721 25.1259H196.998C196.282 25.1259 195.707 24.55 195.707 23.7958C194.74 24.7282 193.522 25.4093 191.625 25.4093C187.04 25.4093 184.176 22.1411 184.176 17.2595C184.176 12.1264 187.793 8.53829 193.061 8.53829C194.17 8.53829 195.032 8.71655 195.712 9.04108V1.36663C195.712 0.612439 196.318 0.0045166 197.071 0.0045166H199.721C200.474 0.0045166 201.081 0.61701 201.081 1.36663V23.7684V23.7638ZM195.707 14.2519C194.955 13.8222 194.165 13.5708 193.308 13.5708C191.625 13.5708 189.905 14.6815 189.905 17.0903C189.905 19.2798 191.374 20.3951 192.733 20.3951C193.914 20.3951 194.918 19.9288 195.707 19.2112V14.2564V14.2519Z" fill="#008197"/>
<path d="M72.4095 68.1148C72.4095 64.5861 71.0593 61.3727 68.8469 58.9639C65.1703 47.2625 54.6561 38.4134 41.9294 37.4306C39.8129 37.2661 37.9564 38.8568 37.7967 40.9822C37.6325 43.1076 39.2199 44.9634 41.341 45.1234C48.2654 45.6582 54.3094 49.3057 58.1593 54.617C51.0616 55.0147 45.4327 60.9019 45.4327 68.1102C45.4327 75.3184 51.0616 81.2057 58.1547 81.6033C54.3185 86.9009 48.2973 90.5393 41.4049 91.0924C39.2838 91.2615 37.7009 93.1219 37.8743 95.2473C38.0339 97.2676 39.7217 98.7988 41.7105 98.7988C41.8154 98.7988 41.9158 98.7988 42.0207 98.7851C49.6977 98.1726 56.8182 94.7079 62.0685 89.0355C65.2297 85.6211 67.5332 81.585 68.8789 77.229C71.0729 74.8248 72.414 71.6252 72.414 68.1102L72.4095 68.1148Z" fill="#008197"/>
<path d="M31.7116 91.2935C24.8192 90.745 18.798 87.1021 14.9618 81.8045C22.0549 81.4068 27.6838 75.5195 27.6838 68.3113C27.6838 61.1031 22.0504 55.2113 14.9572 54.8182C18.8071 49.5068 24.8511 45.8593 31.7755 45.3245C33.8966 45.16 35.484 43.3042 35.3198 41.1833C35.1556 39.0624 33.3036 37.4627 31.1871 37.6318C18.4604 38.6145 7.94615 47.4637 4.26957 59.165C2.05724 61.5739 0.707031 64.7872 0.707031 68.3159C0.707031 71.8446 2.04812 75.0305 4.2422 77.4347C5.58785 81.7907 7.89142 85.8268 11.0525 89.2412C16.3074 94.9182 23.4279 98.3783 31.1004 98.9908C31.2053 99 31.3102 99.0046 31.4106 99.0046C33.3994 99.0046 35.0826 97.4733 35.2468 95.453C35.4156 93.3276 33.8327 91.4672 31.7162 91.2981L31.7116 91.2935Z" fill="#E76924"/>
<path d="M117.468 91.6363C117.391 91.6363 117.313 91.618 117.24 91.586C116.031 91.033 115.365 90.2056 114.412 88.9075L102.36 70.7155C102.192 70.4596 102.26 70.1168 102.516 69.9476C102.771 69.7785 103.113 69.8471 103.282 70.103L115.32 88.2767C116.31 89.6251 116.825 90.1828 117.701 90.5804C117.979 90.7084 118.102 91.033 117.974 91.3118C117.883 91.5129 117.683 91.6363 117.473 91.6363H117.468Z" fill="white"/>
<path d="M201.947 79.5145C201.605 76.58 199.794 73.8695 196.195 72.032C193.513 70.647 191.237 70.0757 189.043 69.1798C187.419 68.4485 186.196 67.8771 186.196 66.7344C186.196 65.5917 187.414 65.1849 188.714 65.1849C190.096 65.1849 190.991 65.5917 192.044 65.9985C193.18 66.4053 194.485 66.8121 196.35 66.8121C197.974 66.8121 199.379 66.0671 200.291 64.9015C200.291 64.9015 203.535 59.8233 198.111 56.7517C197.231 56.3311 197.071 56.2854 196.432 56.0615C194.156 55.3301 191.068 55.001 187.492 55.001C180.463 55.001 175.732 57.3413 173.597 61.2905V43.6013C173.597 40.0178 170.674 37.1702 167.015 37.1702C163.357 37.1702 160.433 40.0224 160.433 43.6013V55.3256C159.133 55.0833 157.669 55.001 156.209 55.001C148.409 55.001 143.286 57.6887 140.116 61.5145C138.729 63.1966 137.721 65.13 137.028 67.1686V61.4322C137.028 57.9309 134.104 55.0787 130.446 55.0787C126.787 55.0787 123.863 57.9264 123.863 61.4322V81.4845L109.969 61.839L122.727 48.483C122.933 48.2636 123.111 48.0259 123.275 47.7837C124.224 50.8278 127.047 53.0173 130.409 53.0173C134.555 53.0173 137.885 49.6806 137.885 45.5257C137.885 41.3708 134.555 38.034 130.409 38.034C127.627 38.034 125.214 39.5424 123.927 41.7913C122.937 39.0762 120.319 37.161 117.445 37.161C115.657 37.161 113.869 37.8923 112.569 39.2773L96.0746 57.7618V44.0813C96.0746 40.2555 92.9043 37.161 88.9221 37.161C84.9399 37.161 81.7697 40.2555 81.7697 44.0813V87.2392C81.7697 91.065 85.022 94.1595 88.9221 94.1595C92.8222 94.1595 96.0746 91.065 96.0746 87.2392V76.2463L100.299 71.8492L113.139 91.1473C114.439 93.1036 116.715 94.1595 118.909 94.1595C121.354 94.1595 123.466 92.8614 124.766 91.0102C125.907 92.8888 128.01 94.1595 130.446 94.1595C133.94 94.1595 137.028 91.3073 137.028 87.806V81.9005C138.109 84.739 139.851 87.0381 142.068 88.7842C146.133 91.9609 151.821 93.3459 157.997 93.3459H166.126C168.739 93.3459 171.139 92.322 172.48 90.2834C173.31 91.4307 174.565 92.3174 176.038 92.8568C178.884 93.9172 182.456 94.1595 185.79 94.1595C191.46 94.1595 195.634 92.1072 198.736 89.5932C201.833 87.0792 202.289 82.4307 201.947 79.4916V79.5145ZM160.438 82.3758H159.461C156.861 82.3758 154.097 82.1336 152.067 80.7486C150.443 79.6105 149.303 77.6542 149.303 74.642C149.303 72.4434 149.873 70.5693 151.009 69.1021C152.309 67.3926 154.421 66.3322 157.021 66.3322C158.239 66.3322 159.297 66.3322 160.433 66.4967V82.3758H160.438ZM185.143 84.4921C183.519 84.4921 182.378 84.0853 181.16 83.4317C179.696 82.7004 178.319 81.8868 176.531 81.8868C175.44 81.8868 174.432 82.225 173.607 82.8009V72.4205C174.669 74.4317 176.353 75.9995 178.56 77.0828C181.078 78.3032 183.519 78.8746 185.873 79.935C187.255 80.5886 188.231 81.32 188.231 82.4581C188.231 83.8431 186.931 84.4921 185.143 84.4921Z" fill="#E76924"/>
<path d="M185.384 92.0111C182.848 92.0111 179.947 91.938 177.634 91.0787C174.934 90.0959 173.57 88.519 173.584 86.3981C173.588 85.4885 173.807 84.8897 174.359 84.259C174.368 84.2453 174.669 83.8704 175.29 83.5825C175.586 83.4454 175.942 83.5733 176.079 83.875C176.216 84.1721 176.088 84.5286 175.787 84.6658C175.436 84.8303 175.267 85.0269 175.267 85.0269C174.884 85.4611 174.774 85.7765 174.77 86.4027C174.761 87.9888 175.833 89.1543 178.045 89.9588C180.18 90.7541 182.953 90.8181 185.389 90.8181C185.717 90.8181 185.982 91.0832 185.982 91.4123C185.982 91.7414 185.717 92.0066 185.389 92.0066L185.384 92.0111Z" fill="white"/>
<path d="M185.435 58.2738C185.138 58.2738 184.892 58.0407 184.874 57.7436C184.855 57.4327 185.092 57.1676 185.403 57.1493C186.082 57.1128 186.424 57.1082 186.748 57.1036H186.94C186.94 57.1036 186.944 57.1036 186.949 57.1036C187.255 57.1036 187.506 57.3505 187.51 57.6567C187.51 57.9675 187.268 58.2235 186.958 58.2235H186.762C186.447 58.2281 186.123 58.2326 185.467 58.2692C185.457 58.2692 185.444 58.2692 185.435 58.2692V58.2738Z" fill="white"/>
<path d="M179.582 74.9528C179.5 74.9528 179.413 74.9345 179.336 74.8934C176.179 73.3439 174.441 70.4185 174.441 66.6567C174.441 62.1133 177.575 58.74 182.825 57.6293C183.131 57.5653 183.428 57.7618 183.491 58.0635C183.555 58.3652 183.359 58.6669 183.058 58.7309C178.364 59.7227 175.564 62.6892 175.564 66.6613C175.564 69.9706 177.078 72.5394 179.833 73.8924C180.111 74.0295 180.225 74.3632 180.089 74.642C179.993 74.8431 179.792 74.9574 179.582 74.9574V74.9528Z" fill="white"/>
<path d="M154.608 58.3195C154.325 58.3195 154.088 58.1046 154.061 57.8212C154.033 57.5196 154.252 57.2499 154.558 57.2179L154.964 57.1768C155.456 57.1219 155.662 57.1036 156.647 57.1356C156.953 57.1448 157.19 57.4007 157.181 57.707C157.171 58.0132 156.907 58.2463 156.61 58.2372C155.703 58.2052 155.548 58.2235 155.082 58.2692L154.667 58.3103C154.667 58.3103 154.631 58.3103 154.612 58.3103L154.608 58.3195Z" fill="white"/>
<path d="M157.546 91.1655C157.546 91.1655 157.527 91.1655 157.523 91.1655C153.144 90.9781 150.229 90.2788 150.11 90.2514C147.414 89.5566 145.125 88.423 143.291 86.8735C139.692 83.811 137.963 79.8436 137.999 74.7425C138.031 70.0848 139.345 65.875 141.699 62.8811C143.82 60.198 146.712 58.4291 150.302 57.6247C150.311 57.6247 150.685 57.5195 151.497 57.419C151.803 57.3824 152.072 57.5972 152.108 57.8989C152.145 58.2006 151.93 58.4748 151.629 58.516C150.904 58.6028 150.576 58.6942 150.576 58.6942C147.209 59.4484 144.527 61.0848 142.57 63.5622C140.371 66.3641 139.14 70.3362 139.108 74.7471C139.076 79.4962 140.677 83.1894 144.012 86.0233C145.713 87.4632 147.861 88.519 150.384 89.1727C150.407 89.1772 153.312 89.872 157.577 90.0548C157.883 90.0685 158.116 90.3245 158.107 90.6308C158.093 90.9279 157.851 91.161 157.555 91.161L157.546 91.1655Z" fill="white"/>
<path d="M163.316 55.9106C163.01 55.9106 162.764 55.6638 162.764 55.3575C162.764 54.8593 162.75 43.2082 162.764 42.7877C162.773 42.4814 163.033 42.2346 163.334 42.2529C163.64 42.262 163.877 42.518 163.868 42.8197C163.859 43.1442 163.868 51.1615 163.868 55.3575C163.868 55.6638 163.621 55.9106 163.316 55.9106Z" fill="white"/>
<path d="M87.385 91.6318C87.3166 91.6318 87.2481 91.6181 87.1843 91.5953C85.3642 90.8731 84.1509 89.7075 84.1509 86.3479C84.1509 84.5882 84.1372 43.1854 84.1509 42.7649C84.16 42.4587 84.42 42.221 84.721 42.2301C85.0267 42.2393 85.2639 42.4952 85.2547 42.7969C85.2411 43.3865 85.2547 85.9183 85.2547 86.3479C85.2547 89.3921 86.3586 90.0778 87.5902 90.5668C87.8731 90.6811 88.0145 91.0011 87.9004 91.2845C87.8138 91.5039 87.6085 91.6364 87.385 91.6364V91.6318Z" fill="white"/>
<path d="M85.8888 41.1559C85.7519 41.1559 85.6197 41.1057 85.5102 41.0051C85.2867 40.7948 85.2775 40.4474 85.4874 40.2235C85.907 39.7755 86.3586 39.5059 86.9927 39.3184C87.2846 39.2316 87.5902 39.4007 87.6769 39.6933C87.7636 39.9858 87.5948 40.292 87.3029 40.3789C86.792 40.5297 86.5274 40.7263 86.2902 40.9777C86.1807 41.0919 86.0348 41.1514 85.8888 41.1514V41.1559Z" fill="white"/>
<path d="M129.492 91.49C129.392 91.49 129.291 91.4626 129.2 91.4078C127.353 90.2605 126.254 88.3133 126.254 86.2061C126.254 85.1868 126.24 61.263 126.254 60.8425C126.263 60.5363 126.504 60.2894 126.824 60.3077C127.129 60.3169 127.367 60.5728 127.357 60.8745C127.348 61.263 127.357 77.613 127.357 86.2061C127.357 87.9294 128.265 89.5246 129.784 90.4707C130.044 90.6307 130.122 90.9735 129.962 91.2295C129.857 91.3986 129.679 91.49 129.492 91.49Z" fill="white"/>
<path d="M178.246 84.7344C178.145 84.7344 178.04 84.7069 177.949 84.6475C177.767 84.5287 177.598 84.4555 177.274 84.4236C176.973 84.3961 176.75 84.1264 176.777 83.8202C176.804 83.5185 177.073 83.2945 177.379 83.322C177.844 83.3677 178.182 83.482 178.542 83.7151C178.798 83.8796 178.871 84.2224 178.706 84.4784C178.602 84.643 178.424 84.7344 178.241 84.7344H178.246Z" fill="white"/>
<path d="M115.315 41.1559C115.178 41.1559 115.041 41.1057 114.936 41.0051C114.713 40.7948 114.704 40.4474 114.914 40.2235C115.333 39.7755 115.785 39.5059 116.419 39.3184C116.711 39.2316 117.017 39.4007 117.103 39.6933C117.19 39.9858 117.021 40.292 116.729 40.3789C116.218 40.5297 115.963 40.7217 115.716 40.9777C115.607 41.0919 115.461 41.1514 115.315 41.1514V41.1559Z" fill="white"/>
<path d="M164.196 41.1559C164.059 41.1559 163.927 41.1057 163.818 41.0051C163.594 40.7948 163.585 40.4474 163.795 40.2235C164.215 39.7755 164.666 39.5059 165.3 39.3184C165.597 39.2316 165.898 39.4007 165.984 39.6933C166.071 39.9858 165.902 40.292 165.61 40.3789C165.099 40.5297 164.835 40.7263 164.598 40.9777C164.488 41.0919 164.342 41.1514 164.196 41.1514V41.1559Z" fill="white"/>
<path d="M125.866 45.448C125.834 45.448 125.802 45.448 125.77 45.4388C125.469 45.384 125.273 45.1006 125.323 44.7989C125.679 42.8014 126.751 41.4576 128.607 40.6943C128.89 40.58 129.209 40.7126 129.328 40.996C129.442 41.2793 129.31 41.5993 129.027 41.7181C127.531 42.3398 126.696 43.3819 126.409 44.9954C126.363 45.2651 126.13 45.4525 125.866 45.4525V45.448Z" fill="white"/>
<path d="M97.3609 61.3636C97.2287 61.3636 97.1009 61.3179 96.996 61.2219C96.7679 61.0208 96.7497 60.6688 96.9504 60.4403L113.071 42.3123C113.271 42.0838 113.623 42.0655 113.851 42.2666C114.079 42.4677 114.097 42.8197 113.896 43.0482L97.776 61.1762C97.6666 61.2996 97.516 61.359 97.3655 61.359L97.3609 61.3636Z" fill="white"/>
</g>
<defs>
<clipPath id="clip0_1026_1649">
<rect width="204" height="99" fill="white"/>
</clipPath>
</defs>
</svg>
